<?xml version="1.0" encoding="utf-8"?>
<!-- Generator: Adobe Illustrator 16.0.0, SVG Export Plug-In . SVG Version: 6.00 Build 0)  -->
<!DOCTYPE svg PUBLIC "-//W3C//DTD SVG 1.0//EN" "http://www.w3.org/TR/2001/REC-SVG-20010904/DTD/svg10.dtd">
<svg version="1.0" id="Layer_1" xmlns="http://www.w3.org/2000/svg" xmlns:xlink="http://www.w3.org/1999/xlink" x="0px" y="0px"
	 width="1000px" height="1000px" viewBox="0 0 1000 1000" enable-background="new 0 0 1000 1000" xml:space="preserve">
<g>
	<path fill="#FFFFFF" stroke="#000000" stroke-width="3" stroke-miterlimit="10" d="M512.561,685.662h-1.219v-281
		c0-5.015-5.149-9.082-11.5-9.082c-6.351,0-11.5,4.066-11.5,9.082v281h-1.219c-6.627,0-12,4.367-12,9.752v205.098
		c0,5.385,7.851,9.031,12,9.75c24.757,26.195,0.924,25.248,25.438,0c4.148-0.719,12-4.365,12-9.75V695.414
		C524.561,690.029,519.188,685.662,512.561,685.662z"/>
	<path fill="none" stroke="#000000" stroke-width="3" stroke-miterlimit="10" d="M511.342,437.972c0-5.251-12.795-7.75-17.795-4.763
		"/>
	<path fill="none" stroke="#000000" stroke-width="3" stroke-miterlimit="10" d="M511.342,457.972c0-5.251-12.795-7.75-17.795-4.763
		"/>
	<path fill="none" stroke="#000000" stroke-width="3" stroke-miterlimit="10" d="M511.342,477.972c0-5.251-12.795-7.75-17.795-4.763
		"/>
	<path fill="none" stroke="#000000" stroke-width="3" stroke-miterlimit="10" d="M511.342,497.973c0-5.252-12.795-7.75-17.795-4.764
		"/>
	<path fill="none" stroke="#000000" stroke-width="3" stroke-miterlimit="10" d="M511.342,517.973c0-5.252-12.795-7.75-17.795-4.764
		"/>
	<path fill="none" stroke="#000000" stroke-width="3" stroke-miterlimit="10" d="M511.342,537.973c0-5.252-12.795-7.75-17.795-4.764
		"/>
	<path fill="none" stroke="#000000" stroke-width="3" stroke-miterlimit="10" d="M511.342,557.973c0-5.252-12.795-7.75-17.795-4.764
		"/>
	<path fill="none" stroke="#000000" stroke-width="3" stroke-miterlimit="10" d="M511.342,577.973c0-5.252-12.795-7.75-17.795-4.764
		"/>
	<path fill="none" stroke="#000000" stroke-width="3" stroke-miterlimit="10" d="M511.342,597.973c0-5.252-12.795-7.75-17.795-4.764
		"/>
	<path fill="none" stroke="#000000" stroke-width="3" stroke-miterlimit="10" d="M511.342,617.973c0-5.252-12.795-7.75-17.795-4.764
		"/>
	<path fill="none" stroke="#000000" stroke-width="3" stroke-miterlimit="10" d="M511.342,637.973c0-5.252-12.795-7.75-17.795-4.764
		"/>
	<path fill="none" stroke="#000000" stroke-width="3" stroke-miterlimit="10" d="M511.342,657.973c0-5.252-12.795-7.75-17.795-4.764
		"/>
</g>
<path fill="none" stroke="#000000" stroke-width="3" stroke-miterlimit="10" d="M545.342,933.125c0,6.627-5.373,12-12,12h-67
	c-6.627,0-12-5.373-12-12V437.58c0-6.627-19.627-12-13-12h117c6.627,0-13,5.373-13,12V933.125z"/>
<path fill="none" stroke="#000000" stroke-width="2" stroke-miterlimit="10" d="M454.342,444.254c0,28.928,88.908,28.928,91,0"/>
</svg>
