<?xml version="1.0" encoding="utf-8"?>
<!-- Generator: Adobe Illustrator 16.0.0, SVG Export Plug-In . SVG Version: 6.00 Build 0)  -->
<!DOCTYPE svg PUBLIC "-//W3C//DTD SVG 1.0//EN" "http://www.w3.org/TR/2001/REC-SVG-20010904/DTD/svg10.dtd">
<svg version="1.0" xmlns="http://www.w3.org/2000/svg" xmlns:xlink="http://www.w3.org/1999/xlink" x="0px" y="0px" width="1000px"
	 height="1000px" viewBox="0 0 1000 1000" enable-background="new 0 0 1000 1000" xml:space="preserve">
<g id="Layer_28" display="none">
</g>
<g id="Layer_27" display="none">
</g>
<g id="Layer_26" display="none">
</g>
<g id="Layer_25" display="none">
</g>
<g id="Layer_24" display="none">
</g>
<g id="Layer_23" display="none">
</g>
<g id="Layer_22" display="none">
</g>
<g id="Layer_21" display="none">
</g>
<g id="Layer_20" display="none">
</g>
<g id="Layer_19" display="none">
</g>
<g id="Layer_18" display="none">
</g>
<g id="Layer_17">
</g>
<g id="Layer_16">
</g>
<g id="Layer_15">
</g>
<g id="Layer_14" display="none">
</g>
<g id="Layer_13" display="none">
</g>
<g id="Layer_12" display="none">
</g>
<g id="Layer_11" display="none">
</g>
<g id="Layer_10" display="none">
</g>
<g id="Layer_9" display="none">
</g>
<g id="Layer_8" display="none">
</g>
<g id="Layer_7" display="none">
</g>
<g id="Layer_6" display="none">
</g>
<g id="Layer_5" display="none">
</g>
<g id="Layer_4" display="none">
</g>
<g id="Layer_3">
	<g>
		<path fill-rule="evenodd" clip-rule="evenodd" d="M495.763,812.391c-1.286,0-2.948-0.144-4.829-0.316
			c-5.39-0.495-9.328-2.083-12.769-5.147c-13.924-12.395-24.33-23.823-29.855-39.307c-0.584-1.631-1.479-3.164-2.52-4.316
			c-6.13-6.793-7.14-15.107-8.209-23.909c-0.119-0.976-0.237-1.95-0.363-2.922c-0.132-1.021,0.175-2.167,0.501-3.382
			c0.223-0.832,0.454-1.693,0.558-2.573c0.186-1.58,0.535-1.58,1.301-1.58c0.307,0,0.685,0.03,1.19,0.095
			c8.927,1.135,17.229,5.237,26.125,12.909c8.797,7.587,15.006,13.811,20.133,20.18c7.876,9.785,11.879,20.794,11.898,32.72
			c0.003,2.281,0.43,4.538,0.741,6.187c0.104,0.552,0.197,1.037,0.254,1.434c0.046,4.971,0.014,8.075-1.077,9.177
			C498.319,812.165,497.399,812.391,495.763,812.391z M478.583,779.924c-0.004,0.224,0.011,0.541,0.184,0.847l1.237,2.183
			c3.821,6.741,7.772,13.711,11.74,20.523c0.409,0.702,1.162,1.013,1.826,1.286c0.223,0.092,0.446,0.182,0.642,0.289l1.068,0.591
			l0.369-1.164c0.092-0.289,0.228-0.588,0.362-0.887c0.37-0.825,0.788-1.761,0.548-2.696c-2.107-8.273-4.995-16.315-8.828-24.584
			c-6.025-12.997-15.581-23.028-29.214-30.667c-0.409-0.227-0.814-0.376-1.327-0.565c-0.263-0.098-0.561-0.207-0.909-0.347
			l-1.054-0.422l-0.285,1.1c-0.061,0.232-0.125,0.456-0.188,0.675c-0.144,0.502-0.292,1.021-0.374,1.563
			c-0.28,1.868,0.22,2.89,2.06,4.205c5.689,4.061,9.271,9.715,13.063,15.701C472.199,771.81,474.985,776.207,478.583,779.924z"/>
		<path d="M439.578,729.938L439.578,729.938c0.259,0,0.607,0.028,1.063,0.087c8.723,1.109,16.857,5.137,25.598,12.675
			c8.75,7.546,14.92,13.729,20.007,20.049c7.73,9.604,11.659,20.401,11.677,32.094c0.003,2.374,0.44,4.685,0.759,6.371
			c0.098,0.517,0.184,0.97,0.238,1.326c0.033,3.559,0.059,7.539-0.789,8.396c-0.3,0.303-1.097,0.456-2.369,0.456
			c-1.243,0-2.881-0.142-4.737-0.312c-5.164-0.475-8.925-1.985-12.196-4.899c-13.809-12.293-24.124-23.611-29.579-38.897
			c-0.626-1.75-1.592-3.401-2.718-4.648c-5.918-6.559-6.91-14.72-7.959-23.36c-0.119-0.978-0.238-1.955-0.364-2.93
			c-0.106-0.824,0.176-1.878,0.475-2.993c0.232-0.867,0.473-1.764,0.585-2.717c0.041-0.349,0.09-0.564,0.128-0.69
			C439.445,729.939,439.504,729.938,439.578,729.938 M477.603,780.347c0.032,0.271,0.111,0.593,0.295,0.918l1.238,2.184
			c3.822,6.742,7.774,13.715,11.744,20.531c0.579,0.995,1.579,1.407,2.31,1.708c0.202,0.083,0.412,0.17,0.539,0.239l2.137,1.182
			l0.738-2.327c0.068-0.215,0.191-0.49,0.321-0.781c0.415-0.926,0.931-2.078,0.605-3.35c-2.123-8.335-5.031-16.434-8.89-24.759
			c-6.116-13.194-15.809-23.374-29.643-31.126c-0.47-0.26-0.929-0.429-1.459-0.625c-0.256-0.094-0.546-0.201-0.883-0.336
			l-2.109-0.845l-0.571,2.198c-0.058,0.225-0.12,0.44-0.181,0.651c-0.153,0.533-0.311,1.084-0.401,1.689
			c-0.386,2.571,0.612,3.843,2.468,5.169c5.529,3.947,9.061,9.521,12.799,15.422C471.315,772.283,474.059,776.613,477.603,780.347
			 M439.577,727.938c-1.457,0-2.071,0.57-2.294,2.463c-0.246,2.089-1.314,4.216-1.057,6.2c1.247,9.637,1.77,19.559,8.822,27.373
			c1.011,1.119,1.81,2.556,2.32,3.982c5.862,16.429,17.459,28.437,30.132,39.718c3.928,3.498,8.286,4.932,13.343,5.396
			c2.012,0.185,3.625,0.32,4.92,0.32c5,0,5.24-2.02,5.156-11.006c-0.218-1.559-0.991-4.551-0.995-7.546
			c-0.02-12.614-4.44-23.805-12.119-33.345c-5.968-7.414-13.029-14.074-20.259-20.31c-7.631-6.581-16.202-11.815-26.652-13.145
			C440.393,727.977,439.957,727.938,439.577,727.938L439.577,727.938z M494.695,804.177c-0.712-0.394-1.737-0.602-2.087-1.203
			c-4.386-7.53-8.674-15.117-12.971-22.695c-0.131-0.231,0.034-0.673-0.125-0.833c-8.539-8.678-12.322-21.146-22.491-28.405
			c-1.574-1.125-1.872-1.777-1.652-3.244c0.104-0.698,0.342-1.373,0.54-2.135c0.99,0.396,1.59,0.563,2.119,0.855
			c12.696,7.114,22.535,16.711,28.795,30.216c3.682,7.941,6.625,16,8.767,24.411C495.815,802.02,495.018,803.158,494.695,804.177
			L494.695,804.177z"/>
	</g>
	<g>
		<path fill-rule="evenodd" clip-rule="evenodd" d="M511.57,811.479c-0.531-0.02-2.154-1.268-2.691-2.332
			c-0.385-0.765-0.356-1.891-0.327-3.081c0.015-0.57,0.029-1.158,0.001-1.752c0.351-2.646,0.545-5.367,0.732-8
			c0.473-6.62,0.961-13.466,3.977-19.514l0.934-1.88c4.684-9.452,9.526-19.227,19.054-25.186c2.139-1.338,3.924-3.107,5.651-4.818
			c2.609-2.585,5.075-5.027,8.659-6.102c3.861-1.157,7.729-2.495,11.47-3.789c3.925-1.358,7.983-2.762,12.02-3.951
			c0.59-0.173,1.113-0.261,1.557-0.261c0.57,0,0.973,0.143,1.194,0.424c0.328,0.415,0.374,1.206,0.131,2.228
			c-3.965,16.659-9.2,30.547-16.006,42.458c-2.711,4.743-6.456,9.052-10.078,13.219l-0.479,0.552
			c-1.578,1.815-3.38,3.529-5.122,5.187c-2.243,2.134-4.563,4.341-6.493,6.837c-4.635,5.995-11.041,7.175-17.823,8.424
			C515.832,810.527,513.663,810.927,511.57,811.479z M559.63,749.131c-0.641,0-1.607,0.222-2.216,0.71
			c-1.012,0.813-1.784,1.848-2.53,2.849l-6.26,8.395c-8.664,11.613-17.623,23.623-26.35,35.501
			c-1.416,1.926-2.494,4.095-3.536,6.192c-0.332,0.668-0.664,1.336-1.006,1.994c-0.349,0.677,0.045,1.336,0.332,1.817
			c0.071,0.119,0.145,0.236,0.193,0.344l0.416,0.918l0.915-0.424c0.156-0.072,0.32-0.135,0.483-0.198
			c0.44-0.171,0.939-0.364,1.376-0.721c0.797-0.65,1.572-1.344,2.322-2.015c1.341-1.198,2.606-2.33,4.016-3.272
			c12.536-8.386,22.187-19.98,28.682-34.462c1.956-4.357,3.609-8.916,5.209-13.325l0.178-0.489c0.389-1.079-0.211-2.656-0.991-3.396
			C560.567,749.271,560.153,749.131,559.63,749.131z"/>
		<path d="M572.605,731.814c0.269,0,0.391,0.046,0.408,0.046c0.001,0,0.001-0.001,0.002-0.001c0.053,0.092,0.146,0.519-0.058,1.375
			c-3.942,16.565-9.144,30.366-15.901,42.193c-2.662,4.657-6.374,8.929-9.965,13.06l-0.479,0.55
			c-1.547,1.78-3.331,3.478-5.057,5.119c-2.27,2.16-4.618,4.394-6.595,6.949c-4.222,5.461-10.12,6.738-16.409,7.904l1.457-0.676
			c0.137-0.063,0.28-0.117,0.424-0.173c0.484-0.188,1.088-0.421,1.646-0.878c0.815-0.665,1.6-1.366,2.358-2.045
			c1.313-1.174,2.554-2.283,3.905-3.187c12.694-8.491,22.464-20.229,29.037-34.883c1.972-4.393,3.632-8.969,5.237-13.395
			l0.179-0.493c0.544-1.509-0.223-3.489-1.252-4.466c-0.484-0.454-1.128-0.685-1.914-0.685c-0.837,0-2.039,0.287-2.844,0.931
			c-1.109,0.892-1.957,2.028-2.704,3.03l-0.086,0.115l-6.175,8.28c-8.665,11.614-17.625,23.625-26.353,35.505
			c-1.467,1.996-2.564,4.205-3.626,6.341c-0.329,0.662-0.658,1.324-1.001,1.984c-0.601,1.167,0.026,2.219,0.364,2.784
			c0.051,0.085,0.104,0.169,0.142,0.247l0.789,1.737c-0.129,0.024-0.259,0.048-0.389,0.072c-2.022,0.372-4.111,0.757-6.153,1.281
			c-0.502-0.242-1.498-1.099-1.822-1.741c-0.272-0.542-0.246-1.592-0.221-2.607c0.014-0.56,0.028-1.136,0.004-1.732
			c0.347-2.647,0.54-5.354,0.728-7.974c0.486-6.822,0.946-13.267,3.874-19.138l0.935-1.883c4.621-9.327,9.4-18.973,18.688-24.781
			c2.232-1.396,4.059-3.206,5.824-4.955c2.52-2.495,4.898-4.852,8.243-5.854c3.882-1.164,7.76-2.505,11.51-3.803
			c3.914-1.354,7.961-2.754,11.975-3.936C571.951,731.853,572.366,731.814,572.605,731.814 M572.605,729.814
			c-0.53,0-1.144,0.098-1.839,0.302c-7.906,2.329-15.6,5.375-23.494,7.741c-6.332,1.898-9.395,7.802-14.554,11.03
			c-10.4,6.505-15.238,17.208-20.352,27.467c-4.333,8.69-3.57,18.599-4.817,27.919c0.104,1.9-0.284,3.893,0.437,5.324
			c0.621,1.231,2.529,2.882,3.597,2.882c0.077,0,0.149-0.009,0.217-0.026c8.648-2.289,18.35-1.853,24.744-10.124
			c3.377-4.366,7.939-7.792,11.579-11.979c3.834-4.414,7.791-8.892,10.67-13.93c7.622-13.34,12.559-27.799,16.11-42.723
			C575.477,731.292,574.671,729.814,572.605,729.814L572.605,729.814z M519.168,806.52c-0.198-0.437-0.684-1.023-0.548-1.287
			c1.415-2.726,2.656-5.602,4.46-8.056c10.763-14.649,21.656-29.2,32.52-43.774c0.738-0.989,1.491-2.02,2.439-2.781
			c0.355-0.285,1.069-0.49,1.591-0.49c0.24,0,0.439,0.044,0.545,0.143c0.532,0.505,0.97,1.69,0.739,2.33
			c-1.677,4.621-3.347,9.264-5.358,13.746c-6.264,13.964-15.517,25.472-28.325,34.04c-2.301,1.538-4.26,3.584-6.416,5.345
			C520.357,806.108,519.722,806.263,519.168,806.52L519.168,806.52z"/>
	</g>
	<g>
		<path fill-rule="evenodd" clip-rule="evenodd" d="M505.272,650.936c-0.331-0.124-0.756-0.337-0.927-0.487
			c-1.723-5.688-2.18-11.274-1.288-15.748l0.023-0.117l-0.005-0.119c-0.723-17.68,4.078-31.963,14.677-43.666
			c1.485-1.639,2.756-3.503,3.985-5.307c1.74-2.555,3.385-4.968,5.565-6.754c12.704-10.407,23.562-16.301,35.203-19.111
			c0.609-0.146,1.056-0.218,1.365-0.218c0.235,0,0.31,0.042,0.311,0.042c0.003,0.006,0.208,0.261,0.044,1.635
			c-1.486,12.482-5.402,24.214-9.986,37.159c-1.961,5.536-4.918,10.15-8.58,15.606c-1.562,2.324-3.951,4.244-6.264,6.1
			c-0.685,0.551-1.367,1.099-2.031,1.657c-0.225-0.041-0.59-0.173-0.896-0.291c0.037-0.156,0.081-0.3,0.123-0.368
			c0.597-0.893,1.235-1.77,1.874-2.646c0.987-1.354,2.008-2.756,2.885-4.236c6.078-10.273,9.634-20.008,10.871-29.762
			c0.088-0.69-0.167-1.309-0.393-1.854c-0.075-0.184-0.152-0.365-0.207-0.546l-0.366-1.215l-1.096,0.641
			c-0.134,0.078-0.282,0.146-0.431,0.213c-0.446,0.206-1.003,0.463-1.372,0.973l-1.395,1.919c-2.763,3.798-5.618,7.726-8.289,11.692
			c-1.853,2.752-3.649,5.6-5.388,8.354c-1.337,2.12-2.675,4.241-4.049,6.338c-2.055,3.136-4.129,6.259-6.203,9.382
			c-4.092,6.162-8.323,12.534-12.331,18.905c-0.849,1.348-1.184,2.93-1.507,4.46c-0.238,1.127-0.463,2.191-0.875,3.137
			C507.661,648.217,506.458,649.6,505.272,650.936z"/>
		<path d="M563.279,560.481c-0.009,0.135-0.023,0.296-0.046,0.485c-1.475,12.38-5.372,24.056-9.937,36.943
			c-1.922,5.426-4.845,9.986-8.467,15.383c-1.324,1.972-3.252,3.613-5.336,5.296c0.932-1.28,1.882-2.604,2.718-4.015
			c6.148-10.393,9.747-20.253,11.001-30.143c0.122-0.954-0.214-1.769-0.459-2.363c-0.071-0.174-0.139-0.338-0.174-0.454
			l-0.733-2.429l-2.191,1.28c-0.106,0.063-0.227,0.114-0.345,0.169c-0.523,0.241-1.24,0.571-1.762,1.292l-1.396,1.919
			c-2.767,3.806-5.628,7.74-8.309,11.722c-1.861,2.764-3.662,5.618-5.404,8.379c-1.313,2.082-2.672,4.235-4.04,6.323
			c-2.053,3.132-4.16,6.306-6.199,9.376c-4.095,6.167-8.33,12.544-12.344,18.925c-0.944,1.5-1.298,3.171-1.64,4.787
			c-0.228,1.076-0.442,2.092-0.813,2.944c-0.49,1.127-1.353,2.218-2.272,3.279c-1.535-5.329-1.924-10.52-1.094-14.685l0.047-0.234
			l-0.01-0.239c-0.722-17.646,3.86-31.295,14.419-42.953c1.531-1.69,2.822-3.584,4.07-5.415c1.699-2.494,3.304-4.85,5.373-6.544
			c12.582-10.307,23.316-16.14,34.805-18.912C562.954,560.547,563.131,560.509,563.279,560.481 M563.872,558.408
			c-0.429,0-0.96,0.092-1.6,0.246c-13.587,3.279-25.034,10.652-35.603,19.31c-3.911,3.203-6.182,8.327-9.658,12.163
			c-11.212,12.38-15.647,26.951-14.935,44.378c-0.977,4.896-0.388,10.68,1.347,16.35c0.16,0.531,1.712,1.177,2.139,1.177
			c0.049,0,0.083-0.009,0.099-0.026c1.34-1.513,2.784-3.084,3.577-4.904c1.036-2.38,0.974-5.34,2.312-7.464
			c5.998-9.535,12.349-18.848,18.523-28.271c3.188-4.865,6.183-9.858,9.431-14.681c3.102-4.608,6.399-9.086,9.663-13.583
			c0.316-0.437,0.99-0.612,1.498-0.909c0.2,0.663,0.645,1.358,0.564,1.985c-1.345,10.604-5.344,20.259-10.739,29.378
			c-1.41,2.381-3.193,4.538-4.735,6.845c-0.29,0.439-0.429,1.546-0.353,1.576c0.63,0.229,1.529,0.644,2.078,0.644
			c0.149,0,0.272-0.03,0.357-0.103c3.022-2.566,6.5-4.904,8.652-8.109c3.332-4.965,6.61-9.952,8.692-15.83
			c4.331-12.23,8.493-24.413,10.037-37.375C565.467,559.125,565.068,558.407,563.872,558.408L563.872,558.408z"/>
	</g>
	<g>
		<path fill-rule="evenodd" clip-rule="evenodd" d="M508.964,761.148c-0.087,0-0.136-0.011-0.153-0.015
			c-0.259-0.13-0.836-1.113-0.903-1.838c-0.313-3.309-0.502-6.695-0.684-9.972c-0.067-1.215-0.135-2.43-0.209-3.645
			c0.522-16.618,2.141-34.074,15.41-47.727c1.18-1.214,1.986-2.718,2.766-4.173c0.51-0.95,0.99-1.848,1.565-2.665
			c1.248-1.779,2.367-3.008,3.522-3.866c0.727-0.543,1.449-1.09,2.173-1.638c3.286-2.488,6.684-5.062,10.292-7.014
			c6.417-3.47,13.364-6.746,20.646-9.737c0.635-0.261,1.257-0.393,1.849-0.393c1.071,0,1.998,0.438,2.609,1.234
			c0.722,0.939,0.92,2.282,0.546,3.685c-0.544,2.029-1.196,4.082-1.827,6.067c-0.905,2.846-1.84,5.789-2.49,8.766
			c-2.53,11.572-7.312,22.91-14.619,34.662l-0.361,0.585c-2.035,3.297-3.644,5.9-7.31,6.685c-0.101,0.021-0.224,0.032-0.386,0.033
			c-0.006-0.063-0.01-0.121-0.011-0.168c3.484-4.266,5.471-9.287,7.393-14.146c1.115-2.821,2.269-5.738,3.695-8.435
			c1.745-3.298,2.535-7.089,3.3-10.755c0.293-1.402,0.595-2.852,0.944-4.234c0.266-1.038-0.885-2.162-1.529-2.506
			c-0.358-0.193-0.786-0.235-1.081-0.235c-0.369,0-1.275,0.068-1.723,0.7c-3.155,4.437-6.869,9.702-10.487,15.113
			c-0.425,0.634-0.567,1.374-0.693,2.027c-0.099,0.512-0.191,0.995-0.391,1.295c-5.867,8.827-12.839,19.274-20.071,29.842
			l-0.825,1.199c-3.44,4.985-6.998,10.141-7.416,16.836c-0.063,1.043-0.689,2.376-1.674,3.566
			C510.471,760.722,509.546,761.148,508.964,761.148z"/>
		<path d="M565.238,669.467L565.238,669.467c0.765,0,1.393,0.292,1.816,0.845c0.53,0.69,0.666,1.717,0.373,2.815
			c-0.538,2.009-1.187,4.05-1.814,6.023c-0.912,2.868-1.854,5.834-2.515,8.856c-2.505,11.458-7.245,22.693-14.491,34.349
			l-0.362,0.586c-1.419,2.299-2.557,4.141-4.278,5.258c2.508-3.776,4.148-7.924,5.745-11.96c1.105-2.796,2.249-5.688,3.649-8.335
			c1.812-3.424,2.616-7.284,3.396-11.019c0.29-1.392,0.59-2.831,0.933-4.188c0.436-1.701-1.178-3.187-2.015-3.632
			c-0.44-0.239-0.966-0.36-1.563-0.36c-0.524,0-1.821,0.109-2.537,1.119c-3.16,4.443-6.879,9.717-10.504,15.138
			c-0.537,0.803-0.707,1.686-0.844,2.395c-0.062,0.317-0.154,0.798-0.243,0.931c-5.864,8.824-12.833,19.268-20.063,29.83
			c-0.273,0.399-0.549,0.798-0.823,1.196c-3.519,5.098-7.156,10.369-7.591,17.346c-0.05,0.813-0.617,1.985-1.446,2.987
			c-0.133,0.155-0.514,0.354-0.817,0.448c-0.156-0.264-0.318-0.651-0.341-0.895c-0.311-3.288-0.499-6.666-0.681-9.933
			c-0.065-1.187-0.132-2.372-0.203-3.558c0.518-16.485,2.127-33.689,15.124-47.061c1.276-1.314,2.117-2.882,2.93-4.397
			c0.494-0.923,0.962-1.795,1.503-2.564c1.184-1.688,2.232-2.844,3.303-3.64c0.727-0.542,1.451-1.091,2.177-1.641
			c3.256-2.465,6.623-5.015,10.164-6.932c6.387-3.453,13.301-6.713,20.552-9.691C564.283,669.574,564.777,669.468,565.238,669.467
			 M565.238,667.467c-0.697,0.001-1.448,0.148-2.229,0.469c-7.064,2.901-14.025,6.15-20.742,9.782
			c-4.465,2.416-8.492,5.673-12.586,8.729c-1.461,1.086-2.687,2.586-3.744,4.094c-1.521,2.165-2.426,4.86-4.229,6.716
			c-13.232,13.614-15.142,30.835-15.691,48.484c0.276,4.553,0.466,9.114,0.895,13.649c0.094,0.998,0.877,2.5,1.635,2.708
			c0.127,0.035,0.269,0.051,0.418,0.051c0.888,0,2.094-0.568,2.638-1.226c0.946-1.145,1.814-2.708,1.901-4.142
			c0.433-6.935,4.371-12.135,8.068-17.533c6.773-9.896,13.44-19.865,20.078-29.853c0.622-0.935,0.46-2.389,1.083-3.32
			c3.403-5.089,6.924-10.102,10.472-15.091c0.128-0.18,0.528-0.278,0.907-0.278c0.236,0,0.463,0.038,0.61,0.118
			c0.477,0.254,1.125,1.008,1.03,1.378c-1.256,4.972-1.819,10.346-4.158,14.767c-3.918,7.406-5.601,15.906-11.069,22.525
			c-0.281,0.338-0.034,1.106-0.034,1.675c0.033-0.001,0.065-0.001,0.099-0.001c0.257,0,0.516,0.018,0.772,0.018
			c0.215,0,0.428-0.013,0.634-0.057c4.321-0.924,6.106-4.168,8.312-7.719c6.795-10.929,11.991-22.375,14.746-34.977
			c1.093-5.003,2.979-9.83,4.307-14.789C570.273,670.225,568.254,667.467,565.238,667.467L565.238,667.467z"/>
	</g>
	<g>
		<path fill-rule="evenodd" clip-rule="evenodd" d="M494.222,708.41c-0.102,0-0.364-0.092-0.701-0.433
			c-0.99-1.006-1.92-2.164-2.766-3.443c-5.936-9.011-13.042-15.613-21.723-20.184c-4.518-2.378-9.246-5.546-14.453-9.687
			c-3.382-2.689-5.698-5.387-6.882-8.02c-6.443-14.316-13.104-29.12-15.375-45.27c-0.251-1.785-0.15-2.258-0.065-2.381
			c0,0,0,0.001,0.001,0.001c0.012,0,0.102-0.032,0.324-0.032c0.45,0,1.129,0.123,2.203,0.398c7.395,1.898,15.042,3.861,21.415,8.82
			c1.987,1.548,4.189,2.85,6.318,4.108c2.683,1.587,5.217,3.085,7.389,5.043c4.338,3.909,7.931,8.864,11.102,13.235
			c10.918,15.058,15.527,29.083,14.503,44.138c-0.099,1.244-0.19,2.5-0.281,3.757c-0.224,3.085-0.456,6.275-0.813,9.39
			c-0.045,0.391-0.16,0.541-0.188,0.56L494.222,708.41z M449.252,636.763c0.174,0.355,0.324,0.733,0.476,1.11
			c0.375,0.935,0.761,1.9,1.483,2.669c11.365,12.11,20.033,26.163,26.314,37.054c2.941,5.102,6.021,10.289,9.418,15.858
			c0.462,0.755,1.71,1.63,2.628,1.63l0,0c0.217,0,0.418-0.045,0.599-0.134c0.772-0.375,1.216-1.16,1.54-1.733
			c0.09-0.159,0.172-0.31,0.256-0.429l0.249-0.354l-0.088-0.425c-2.329-11.236-4.921-20.385-9.998-28.515
			c-6.828-10.932-16.026-19.875-27.339-26.584c-0.954-0.566-2.007-0.862-3.026-1.148c-0.435-0.122-0.869-0.243-1.291-0.387
			l-2.284-0.779L449.252,636.763z"/>
		<path d="M433.178,620.026c0.516,0.087,1.112,0.24,1.357,0.304c7.296,1.873,14.841,3.81,21.049,8.641
			c2.038,1.587,4.268,2.905,6.423,4.18c2.639,1.561,5.131,3.034,7.229,4.926c4.26,3.839,7.82,8.748,10.961,13.079
			c10.773,14.857,15.322,28.675,14.317,43.46c-0.1,1.258-0.191,2.517-0.283,3.775c-0.195,2.682-0.396,5.444-0.678,8.158
			c-0.693-0.779-1.352-1.639-1.963-2.563c-6.032-9.156-13.259-15.869-22.093-20.52c-4.462-2.349-9.138-5.483-14.296-9.585
			c-3.21-2.552-5.49-5.196-6.593-7.646c-6.414-14.253-13.046-28.99-15.297-44.998C433.236,620.697,433.196,620.308,433.178,620.026
			 M489.571,696.084c0.371,0,0.721-0.08,1.032-0.232c1.058-0.514,1.611-1.494,1.978-2.144c0.072-0.127,0.136-0.249,0.203-0.344
			l0.499-0.709l-0.176-0.849c-2.351-11.341-4.974-20.586-10.129-28.842c-6.914-11.068-16.226-20.123-27.676-26.913
			c-1.068-0.634-2.236-0.962-3.268-1.252c-0.438-0.122-0.852-0.238-1.238-0.37l-4.567-1.558l2.126,4.332
			c0.152,0.31,0.294,0.665,0.445,1.041c0.39,0.973,0.832,2.075,1.682,2.981c11.295,12.035,19.923,26.025,26.177,36.868
			c2.945,5.109,6.03,10.304,9.433,15.884C486.714,694.995,488.261,696.084,489.571,696.084 M432.582,617.963
			c-1.465,0-1.612,0.975-1.25,3.552c2.271,16.149,8.855,30.878,15.454,45.54c1.458,3.239,4.327,6.13,7.172,8.392
			c4.58,3.642,9.445,7.071,14.61,9.789c8.987,4.731,15.848,11.492,21.354,19.851c0.844,1.276,1.813,2.502,2.888,3.594
			c0.476,0.483,0.977,0.73,1.413,0.73c0.601,0,1.077-0.472,1.189-1.444c0.501-4.383,0.749-8.794,1.098-13.192
			c1.156-17.003-5.041-31.482-14.691-44.792c-3.42-4.716-6.952-9.525-11.242-13.391c-4.054-3.655-9.417-5.814-13.762-9.198
			c-6.494-5.053-14.108-7.03-21.781-9C433.969,618.119,433.169,617.963,432.582,617.963L432.582,617.963z M489.571,694.084
			c-0.484,0-1.453-0.626-1.774-1.15c-3.196-5.241-6.339-10.518-9.406-15.838c-7.642-13.249-15.93-26.027-26.452-37.238
			c-0.868-0.924-1.206-2.346-1.79-3.535c1.383,0.472,2.898,0.718,4.13,1.449c11.099,6.581,20.235,15.421,27.001,26.253
			c5.252,8.411,7.785,18.147,9.867,28.188c-0.364,0.518-0.733,1.507-1.419,1.84C489.685,694.074,489.632,694.084,489.571,694.084
			L489.571,694.084z"/>
	</g>
	<g>
		<path fill-rule="evenodd" clip-rule="evenodd" d="M502.481,594.3c-0.29-0.804-0.56-1.571-0.729-2.353
			c-0.112-0.513-0.072-1.104-0.04-1.578c0.011-0.163,0.021-0.312,0.024-0.438c0.099-0.479,0.229-0.925,0.349-1.343
			c0.29-1.009,0.563-1.961,0.341-2.916c-3.369-14.49,2.037-26.764,8.37-39.1c10.393-20.243,28.607-30.426,45.055-37.718
			c0.71-0.313,1.518-0.479,2.373-0.655c0.651-0.134,1.324-0.271,1.987-0.484c0.468-0.149,0.866-0.226,1.182-0.226
			c0.115,0,0.393,0.013,0.483,0.13c0.121,0.156,0.188,0.643-0.028,1.499l-0.823,3.281c-2.61,10.409-5.311,21.173-8.171,31.697
			c-1.711,6.295-4.729,10.01-9.495,11.692c-0.34,0.12-0.765,0.15-1.22,0.172c-0.014-0.41-0.013-0.786,0.086-1.053
			c1.779-4.831,3.601-9.646,5.421-14.462c0.774-2.047,1.548-4.094,2.318-6.141c0.139-0.368,0.289-0.734,0.439-1.101
			c0.457-1.111,0.929-2.259,1.095-3.495c0.148-1.112-0.022-2.21-0.188-3.271c-0.066-0.427-0.134-0.854-0.177-1.277l-0.218-2.137
			l-1.495,1.542c-0.253,0.261-0.525,0.509-0.797,0.758c-0.658,0.602-1.34,1.225-1.828,2.037c-1.039,1.727-2.035,3.51-2.999,5.234
			c-1.481,2.654-3.015,5.398-4.714,7.947c-3.875,5.813-7.908,11.663-11.808,17.321c-3.072,4.456-6.248,9.064-9.33,13.628
			c-2.673,3.958-5.321,8.022-7.883,11.953c-2.08,3.192-4.16,6.385-6.273,9.555C503.479,593.468,503.002,593.878,502.481,594.3z"/>
		<path d="M560.949,508.55c-0.017,0.094-0.039,0.202-0.07,0.326l-0.824,3.282c-2.609,10.404-5.307,21.162-8.165,31.678
			c-1.577,5.8-4.293,9.271-8.53,10.89c1.717-4.654,3.498-9.364,5.223-13.926c0.774-2.047,1.549-4.094,2.319-6.143
			c0.135-0.357,0.281-0.714,0.429-1.071c0.48-1.169,0.977-2.378,1.16-3.743c0.168-1.255-0.023-2.479-0.191-3.558
			c-0.067-0.43-0.131-0.836-0.17-1.224l-0.435-4.275l-2.991,3.085c-0.225,0.232-0.481,0.467-0.754,0.716
			c-0.678,0.62-1.447,1.323-2.011,2.26c-1.047,1.74-2.047,3.531-3.015,5.263c-1.473,2.637-2.995,5.364-4.673,7.88
			c-3.87,5.806-7.901,11.653-11.8,17.309c-3.072,4.458-6.25,9.068-9.334,13.636c-2.679,3.965-5.329,8.033-7.893,11.968
			c-2.044,3.137-4.158,6.381-6.269,9.547c-0.01,0.015-0.02,0.028-0.03,0.043c-0.075-0.255-0.142-0.507-0.196-0.758
			c-0.081-0.373-0.047-0.886-0.019-1.297c0.009-0.138,0.017-0.266,0.021-0.381c0.088-0.404,0.203-0.803,0.314-1.19
			c0.313-1.087,0.636-2.211,0.354-3.418c-3.293-14.161,2.04-26.253,8.285-38.418c10.251-19.965,28.283-30.039,44.568-37.259
			c0.613-0.271,1.37-0.427,2.171-0.591c0.677-0.139,1.377-0.282,2.089-0.511C560.685,508.614,560.828,508.576,560.949,508.55
			 M561.394,506.49c-0.415,0-0.911,0.09-1.487,0.273c-1.465,0.47-3.071,0.563-4.46,1.178c-18.829,8.348-35.625,18.865-45.539,38.175
			c-6.506,12.673-11.853,25.168-8.454,39.784c0.247,1.059-0.397,2.322-0.714,3.922c0,0.489-0.156,1.451,0.037,2.337
			c0.283,1.305,0.816,2.554,1.242,3.828c0.88-0.803,1.964-1.47,2.604-2.432c4.76-7.138,9.349-14.391,14.153-21.503
			c6.992-10.355,14.21-20.558,21.141-30.954c2.828-4.241,5.104-8.845,7.737-13.221c0.606-1.008,1.647-1.749,2.486-2.614
			c0.146,1.441,0.556,2.919,0.369,4.314c-0.201,1.498-0.936,2.93-1.479,4.376c-2.585,6.868-5.206,13.724-7.742,20.609
			c-0.271,0.733-0.095,1.634-0.127,2.457c0.846-0.089,1.752-0.013,2.532-0.287c5.858-2.068,8.627-6.855,10.127-12.373
			c3.159-11.622,6.066-23.314,8.999-34.997C563.283,507.516,562.801,506.49,561.394,506.49L561.394,506.49z"/>
	</g>
	<g>
		<path fill-rule="evenodd" clip-rule="evenodd" d="M492.124,602.066c-0.334-0.14-0.83-0.353-0.923-0.493
			c-0.605-1.205-1.078-2.687-1.442-4.524c-0.548-2.777-1.053-5.62-1.542-8.368c-0.92-5.185-1.873-10.546-3.166-15.747
			c-3.457-13.906-11.173-25.584-22.934-34.709c-3.982-3.087-8.079-6.065-11.913-8.823c-0.247-0.178-0.546-0.269-0.89-0.269
			c-0.354,0-0.698,0.094-1.031,0.185c-0.157,0.043-0.313,0.089-0.455,0.109l-1.011,0.146l0.168,1.008
			c0.021,0.127,0.028,0.263,0.038,0.398c0.031,0.461,0.069,1.034,0.424,1.522c0.399,0.548,0.847,1.036,1.279,1.51
			c0.408,0.446,0.794,0.867,1.125,1.317c1.778,2.413,3.585,4.807,5.393,7.199c4.333,5.736,8.813,11.668,12.774,17.771
			c4.308,6.634,8.198,13.719,11.96,20.57c1.166,2.124,2.332,4.247,3.512,6.361c0.334,0.599,0.314,1.805,0.103,2.089
			c-0.328,0.44-0.507,0.49-0.509,0.491c-0.172-0.035-0.609-0.546-0.844-0.82c-0.229-0.268-0.454-0.525-0.675-0.726
			c-1.834-1.671-3.657-3.43-5.419-5.131c-0.874-0.844-1.747-1.687-2.625-2.523c-5.268-5.019-11.643-8.339-17.808-11.549
			c-2.893-1.507-5.884-3.064-8.701-4.771c-0.603-0.364-1.291-0.641-1.955-0.908c-0.918-0.368-1.959-0.787-2.2-1.28
			c-0.665-1.366-1.338-2.729-2.011-4.091c-3.672-7.433-7.47-15.119-9.784-23.243c-0.468-1.64-1.012-3.276-1.538-4.859
			c-0.609-1.834-1.239-3.73-1.743-5.612c-0.229-0.854-0.299-1.773-0.374-2.746c-0.085-1.107-0.172-2.252-0.509-3.362
			c-0.474-1.56-0.233-2.121-0.108-2.29c0.179-0.241,0.59-0.291,0.904-0.291c0.469,0,1.057,0.112,1.7,0.324
			c1.449,0.479,2.909,0.937,4.37,1.393c5.907,1.848,12.015,3.759,17.297,7.239c1.587,1.046,3.235,2.062,4.829,3.044
			c3.778,2.329,7.684,4.737,10.963,7.666c10.875,9.716,17.596,22.831,23.239,35.556c1.019,2.297,1.092,3.786,1.193,5.847
			c0.047,0.954,0.1,2.027,0.259,3.312c-0.102,0.378-0.136,0.866-0.175,1.438c-0.01,0.149-0.023,0.33-0.037,0.501l-0.239,0.02
			l0.394,5.322c0.339,4.535,0.689,9.224,0.964,13.836C492.465,601.333,492.296,601.71,492.124,602.066z"/>
		<path d="M427.694,516.607c0.358,0,0.851,0.097,1.386,0.273c1.459,0.483,2.947,0.948,4.385,1.398
			c6.11,1.911,11.881,3.716,17.045,7.119c1.6,1.055,3.254,2.074,4.854,3.061c3.741,2.307,7.609,4.691,10.821,7.56
			c10.734,9.591,17.394,22.594,22.992,35.217c0.943,2.126,1.009,3.464,1.108,5.489c0.046,0.938,0.098,1.989,0.249,3.248
			c-0.073,0.34-0.111,0.693-0.138,1.029l-0.373,0.031l0.145,1.974c0.106,1.444,0.214,2.89,0.322,4.335
			c0.291,3.894,0.59,7.902,0.843,11.876c-0.225-0.707-0.421-1.491-0.594-2.362c-0.546-2.769-1.05-5.605-1.538-8.35
			c-0.924-5.201-1.878-10.58-3.18-15.813c-3.513-14.129-11.349-25.991-23.292-35.259c-3.994-3.097-8.1-6.08-11.939-8.843
			c-0.29-0.209-0.781-0.458-1.477-0.458c-0.488,0-0.935,0.122-1.294,0.22c-0.11,0.03-0.276,0.075-0.335,0.084l-2.023,0.293
			l0.337,2.017c0.016,0.095,0.019,0.197,0.026,0.3c0.035,0.526,0.088,1.322,0.616,2.048c0.431,0.59,0.897,1.1,1.348,1.593
			c0.39,0.426,0.758,0.828,1.058,1.236c1.783,2.419,3.622,4.854,5.4,7.209c4.322,5.722,8.792,11.64,12.733,17.711
			c4.287,6.603,8.168,13.672,11.922,20.508c1.167,2.126,2.334,4.251,3.515,6.367c0.035,0.064,0.063,0.164,0.085,0.279
			c-0.144-0.161-0.296-0.32-0.462-0.471c-1.825-1.662-3.642-3.416-5.399-5.112c-0.875-0.845-1.75-1.689-2.63-2.527
			c-5.371-5.117-11.809-8.47-18.036-11.713c-2.879-1.499-5.856-3.049-8.646-4.738c-0.672-0.407-1.397-0.698-2.1-0.98
			c-0.551-0.221-1.465-0.589-1.692-0.828c-0.66-1.354-1.327-2.706-1.995-4.059c-3.653-7.393-7.43-15.037-9.72-23.074
			c-0.474-1.66-1.021-3.308-1.55-4.9c-0.605-1.82-1.23-3.702-1.726-5.556c-0.205-0.765-0.271-1.639-0.343-2.564
			c-0.089-1.16-0.181-2.36-0.55-3.575c-0.205-0.674-0.24-1.077-0.236-1.29C427.642,516.607,427.667,516.607,427.694,516.607
			 M427.694,514.607c-1.591,0-2.637,0.962-1.752,3.872c0.587,1.935,0.348,4.112,0.875,6.076c0.946,3.536,2.28,6.965,3.284,10.487
			c2.759,9.683,7.489,18.522,11.858,27.497c0.631,1.297,3.022,1.69,4.536,2.606c8.814,5.338,18.71,8.922,26.337,16.188
			c2.686,2.558,5.32,5.173,8.062,7.67c0.661,0.599,1.334,1.805,2.201,1.805c0.39,0,0.818-0.243,1.302-0.894
			c0.515-0.693,0.436-2.335-0.033-3.173c-5.057-9.063-9.864-18.3-15.506-26.989c-5.607-8.638-12.082-16.714-18.201-25.018
			c-0.731-0.993-1.674-1.828-2.4-2.822c-0.27-0.371-0.2-0.993-0.284-1.498c0.424-0.062,0.963-0.283,1.342-0.283
			c0.122,0,0.226,0.022,0.306,0.08c4,2.878,7.989,5.782,11.884,8.802c11.377,8.828,19.103,20.19,22.576,34.16
			c1.97,7.921,3.113,16.048,4.697,24.068c0.325,1.638,0.789,3.305,1.533,4.784c0.338,0.673,1.513,0.922,2.309,1.363
			c0.293-0.782,0.877-1.584,0.831-2.346c-0.361-6.065-0.843-12.124-1.287-18.185c0.221-0.019,0.187-2.714,0.407-2.731
			c-0.552-4.152,0.066-6.03-1.564-9.705c-5.853-13.198-12.524-26.102-23.487-35.896c-4.737-4.23-10.549-7.269-15.907-10.799
			c-6.694-4.411-14.437-6.277-21.903-8.746C429.008,514.751,428.31,514.606,427.694,514.607L427.694,514.607z"/>
	</g>
	<g>
		<path fill-rule="evenodd" clip-rule="evenodd" d="M505.61,705.388c-0.368-3.083-0.704-6.173-0.962-8.544l-0.221-2.018
			c0.237-2.298,0.426-4.417,0.604-6.41c0.367-4.124,0.685-7.686,1.283-11.189c1.476-8.648,5.385-16.99,11.306-24.124l0.569-0.687
			c6.058-7.311,12.321-14.87,21.59-19.133c2.538-1.168,4.982-2.625,7.347-4.035c2.7-1.609,5.492-3.274,8.456-4.53
			c1.927-0.816,3.861-1.08,5.91-1.358c1.769-0.241,3.597-0.489,5.396-1.126c0.157-0.055,0.324-0.083,0.496-0.083
			c0.724,0,1.548,0.505,2.051,1.255c0.205,0.307,0.646,1.104,0.313,1.909c-1.341,3.253-2.038,6.715-2.712,10.062
			c-1.007,4.997-1.957,9.717-4.863,13.884c-0.813,1.166-1.278,2.51-1.728,3.81c-0.365,1.056-0.711,2.054-1.22,2.925
			c-1.09,1.864-2.444,3.403-3.815,4.333c-0.104,0.07-0.33,0.154-0.821,0.154c-0.396,0-0.848-0.052-1.325-0.106
			c-0.152-0.018-0.308-0.035-0.463-0.052c0.001-0.023,0.003-0.048,0.004-0.072c0.031-0.717,0.062-1.394,0.227-1.993
			c0.917-3.33,1.861-6.65,2.806-9.972c0.784-2.76,1.568-5.519,2.338-8.283c0.153-0.559,0.034-1.098-0.062-1.531
			c-0.03-0.137-0.062-0.272-0.078-0.404l-0.133-1.024l-1.02,0.165c-0.137,0.022-0.285,0.027-0.435,0.035
			c-0.505,0.025-1.133,0.058-1.64,0.472c-0.941,0.764-2.012,1.698-2.791,2.821c-1.526,2.206-3.02,4.433-4.514,6.659
			c-2.26,3.368-4.597,6.852-7.004,10.188c-1.365,1.89-2.932,3.733-4.447,5.518c-2.713,3.193-5.519,6.496-7.363,10.268
			c-2.816,5.758-7.057,10.66-11.157,15.401c-4.436,5.129-9.019,10.429-11.909,16.89C505.617,705.436,505.613,705.411,505.61,705.388
			z"/>
		<path d="M567.384,623.15c0.386,0,0.91,0.349,1.22,0.812c0.09,0.135,0.372,0.603,0.221,0.972
			c-1.378,3.342-2.085,6.852-2.769,10.245c-0.985,4.892-1.916,9.513-4.702,13.509c-0.894,1.279-1.382,2.69-1.854,4.056
			c-0.349,1.008-0.678,1.96-1.138,2.747c-1,1.71-2.224,3.115-3.455,3.969c-0.045,0.009-0.143,0.022-0.318,0.022
			c-0.217,0-0.468-0.02-0.737-0.047c0.028-0.333,0.069-0.642,0.145-0.911c0.915-3.324,1.875-6.7,2.803-9.964
			c0.785-2.762,1.569-5.522,2.341-8.294c0.219-0.796,0.057-1.526-0.05-2.01c-0.023-0.106-0.05-0.213-0.063-0.316l-0.265-2.049
			l-2.038,0.33c-0.103,0.017-0.215,0.019-0.325,0.023c-0.582,0.03-1.462,0.074-2.217,0.691c-0.999,0.811-2.136,1.805-2.987,3.033
			c-1.53,2.212-3.051,4.478-4.521,6.669c-2.255,3.362-4.587,6.838-6.983,10.16c-1.342,1.857-2.896,3.687-4.398,5.456
			c-2.753,3.24-5.6,6.591-7.5,10.476c-2.76,5.641-6.77,10.277-11.015,15.187c-3.776,4.366-7.658,8.855-10.551,14.102
			c-0.217-1.91-0.413-3.718-0.583-5.28l-0.209-1.914c0.232-2.265,0.416-4.324,0.594-6.318c0.365-4.103,0.681-7.646,1.273-11.111
			c1.445-8.475,5.28-16.653,11.089-23.653l0.569-0.686c6.262-7.558,12.177-14.695,21.238-18.863c2.587-1.189,5.055-2.661,7.44-4.084
			c2.671-1.593,5.434-3.24,8.335-4.469c1.803-0.765,3.674-1.02,5.654-1.289c1.818-0.247,3.698-0.503,5.593-1.172
			C567.271,623.159,567.324,623.15,567.384,623.15 M567.384,621.15c-0.278,0-0.557,0.045-0.829,0.141
			c-3.691,1.305-7.56,0.894-11.362,2.506c-5.648,2.393-10.464,6.108-15.831,8.578c-9.764,4.49-16.099,12.357-22.511,20.089
			c-5.848,7.046-9.951,15.389-11.521,24.594c-0.902,5.276-1.171,10.665-1.907,17.771c0.268,2.414,0.702,6.551,1.196,10.681
			c0.071,0.578,0.42,1.127,0.642,1.688c0.37-0.297,0.921-0.516,1.088-0.901c5.41-12.525,17.246-20.437,23.24-32.688
			c2.811-5.746,7.9-10.348,11.723-15.64c3.982-5.521,7.655-11.264,11.528-16.862c0.692-0.998,1.651-1.846,2.603-2.617
			c0.369-0.302,1.059-0.206,1.602-0.294c0.066,0.515,0.295,1.078,0.168,1.54c-1.694,6.092-3.465,12.16-5.144,18.257
			c-0.286,1.038-0.225,2.172-0.325,3.264c0.901,0.005,1.949,0.226,2.847,0.226c0.535,0,1.017-0.078,1.383-0.327
			c1.669-1.132,3.08-2.881,4.117-4.655c1.216-2.081,1.546-4.721,2.904-6.667c5.072-7.274,4.448-16.297,7.68-24.137
			C571.518,623.645,569.465,621.15,567.384,621.15L567.384,621.15z"/>
	</g>
	<g>
		<path fill-rule="evenodd" clip-rule="evenodd" d="M497.096,552.198c-0.242-0.188-0.623-0.794-0.637-1.18
			c-0.097-2.649-0.084-5.321-0.07-8.416c0.005-1.191,0.011-2.445,0.011-3.788c-0.855-10.734,1.06-21.015,5.535-29.811
			c3.59-7.059,6.759-12,10.276-16.019c5.683-6.494,12.09-12.576,18.286-18.458l2.633-2.502c6.628-6.315,15.215-9.117,23.52-11.827
			c0.5-0.164,0.924-0.246,1.258-0.246c0.28,0,0.466,0.057,0.553,0.169c0.193,0.251,0.274,1-0.08,2.345
			c-1.008,3.823-2.026,7.642-3.045,11.462c-1.673,6.27-3.402,12.753-5.05,19.145c-0.925,3.598-2.136,7.258-5.819,9.023
			c-0.328,0.158-0.765,0.229-1.414,0.229c-0.323,0-0.654-0.017-0.984-0.033c-0.155-0.008-0.311-0.015-0.465-0.021
			c-0.001-0.027-0.002-0.056-0.003-0.083c-0.027-0.697-0.054-1.355,0.121-1.854c0.6-1.72,1.284-3.451,1.946-5.126
			c0.661-1.672,1.345-3.401,1.951-5.135c0.576-1.64,0.961-3.446,1.145-5.367c0.166-1.749,0.202-3.521,0.237-5.233
			c0.016-0.758,0.031-1.516,0.058-2.272l0.103-2.913l-1.869,2.236c-0.541,0.647-1.146,1.293-1.731,1.918
			c-1.338,1.428-2.721,2.904-3.63,4.669c-6.75,13.136-15.209,25.284-22.607,35.639c-5.426,7.596-10.392,15.551-14.948,23.017
			c-1.173,1.92-1.994,4.041-2.788,6.094c-0.494,1.277-1.006,2.599-1.59,3.832C497.886,551.854,497.374,552.143,497.096,552.198z"/>
		<path d="M557.624,460.978c-0.009,0.25-0.057,0.646-0.211,1.233c-1.008,3.822-2.026,7.64-3.045,11.459
			c-1.673,6.271-3.402,12.757-5.051,19.154c-1.085,4.217-2.297,6.938-5.285,8.37c-0.179,0.086-0.509,0.13-0.98,0.13
			c-0.155,0-0.313-0.005-0.471-0.011c0.005-0.261,0.027-0.491,0.083-0.652c0.594-1.699,1.274-3.422,1.933-5.087
			c0.665-1.681,1.352-3.419,1.966-5.171c0.602-1.717,1.004-3.602,1.196-5.605c0.169-1.785,0.206-3.575,0.241-5.307
			c0.016-0.753,0.031-1.506,0.058-2.258l0.203-5.824l-3.737,4.472c-0.522,0.626-1.091,1.233-1.693,1.875
			c-1.385,1.478-2.816,3.006-3.79,4.897c-6.719,13.075-15.153,25.188-22.532,35.515c-5.444,7.621-10.421,15.595-14.987,23.076
			c-1.219,1.996-2.057,4.161-2.867,6.254c-0.403,1.041-0.788,2.036-1.211,2.999c-0.078-2.474-0.066-4.996-0.053-7.89
			c0.005-1.192,0.011-2.449,0.011-3.793v-0.08l-0.006-0.079c-0.837-10.471,1.041-20.566,5.433-29.198
			c3.55-6.981,6.677-11.859,10.137-15.813c5.653-6.459,12.044-12.525,18.224-18.393c0.879-0.834,1.757-1.668,2.634-2.503
			c6.463-6.158,14.94-8.924,23.139-11.6C557.246,461.054,557.465,461.004,557.624,460.978 M557.907,458.951
			c-0.437,0-0.959,0.097-1.568,0.295c-8.555,2.792-17.193,5.665-23.898,12.053c-7.17,6.831-14.474,13.59-20.982,21.026
			c-4.191,4.791-7.51,10.512-10.415,16.225c-4.992,9.813-6.427,20.459-5.643,30.264c0,4.846-0.075,8.549,0.06,12.241
			c0.028,0.759,0.688,1.853,1.331,2.114c0.064,0.026,0.142,0.038,0.229,0.038c0.595,0,1.634-0.568,1.881-1.089
			c1.533-3.236,2.478-6.805,4.328-9.832c4.752-7.785,9.608-15.538,14.908-22.957c8.226-11.513,16.199-23.145,22.684-35.763
			c1.233-2.397,3.466-4.282,5.239-6.404c-0.087,2.484-0.058,4.978-0.291,7.446c-0.166,1.733-0.518,3.492-1.093,5.132
			c-1.209,3.452-2.692,6.807-3.898,10.261c-0.345,0.985-0.124,2.17-0.159,3.261c0.121-0.005,0.244-0.008,0.368-0.008
			c0.678,0,1.389,0.068,2.066,0.068c0.667,0,1.304-0.066,1.847-0.327c3.97-1.902,5.326-5.672,6.355-9.675
			c2.633-10.217,5.404-20.398,8.093-30.602C559.985,460.298,559.538,458.951,557.907,458.951L557.907,458.951z"/>
	</g>
	<g>
		<path fill-rule="evenodd" clip-rule="evenodd" d="M493.976,650.493c-0.072-0.022-0.135-0.045-0.179-0.066l-0.048-0.078
			c-0.574-0.926-1.167-1.884-1.275-2.77c-0.975-8.005-3.357-16.395-7.5-26.401c-1.887-4.553-4.87-8.747-7.813-12.602
			c-5.961-7.805-13.931-14.869-25.081-22.232c-0.619-0.412-1.367-0.461-1.876-0.461c-0.286,0-0.584,0.018-0.881,0.035
			c-0.257,0.016-0.515,0.032-0.762,0.032c-0.073,0-0.146-0.002-0.217-0.006l-1.226-0.063l0.186,1.214
			c0.044,0.288,0.051,0.618,0.061,0.947c0.029,0.96,0.063,2.049,0.819,2.67c5.584,4.572,9.824,10.485,13.924,16.204
			c2.216,3.091,4.508,6.286,6.998,9.259c4.032,4.814,7.555,10.233,10.961,15.474c1.221,1.878,2.441,3.756,3.687,5.611
			c0.205,0.306,0.297,0.771,0.364,1.291c-0.391-0.145-0.734-0.303-0.962-0.515c-1.278-1.191-2.534-2.476-3.749-3.718
			c-1.994-2.039-4.055-4.148-6.328-5.966c-1.162-0.93-2.31-1.877-3.457-2.823c-5.64-4.654-11.471-9.467-18.943-12.065
			c-7.092-2.466-12.191-6.81-15.156-12.912c-3.985-8.196-8.004-17.019-9.531-26.823c-0.307-1.966,0.197-2.216,1.838-2.478
			c0.742-0.117,1.507-0.177,2.273-0.177c3.774,0,7.38,1.44,10.869,2.833c0.988,0.395,1.971,0.787,2.954,1.147
			c14.3,5.245,26.908,14.561,37.473,27.686c7.311,9.085,9.561,20.325,11.738,31.195l0.349,1.738c0.469,2.321,0.552,4.71,0.64,7.239
			c0.04,1.158,0.081,2.325,0.16,3.496l-0.068,0.975C494.146,648.395,494.073,649.443,493.976,650.493z"/>
		<path d="M430.103,572.074c3.582,0,6.941,1.342,10.498,2.762c0.974,0.389,1.98,0.791,2.981,1.158
			c14.127,5.182,26.589,14.392,37.038,27.373c7.157,8.895,9.285,19.518,11.537,30.765l0.349,1.741
			c0.453,2.239,0.534,4.588,0.62,7.074c0.032,0.932,0.065,1.889,0.12,2.853c-1.1-7.6-3.454-15.599-7.348-25.005
			c-1.931-4.658-4.958-8.918-7.942-12.826c-6.031-7.896-14.078-15.033-25.317-22.455c-0.848-0.565-1.795-0.631-2.434-0.631
			c-0.306,0-0.624,0.019-0.941,0.037c-0.237,0.015-0.474,0.03-0.702,0.03c-0.056,0-0.111-0.001-0.166-0.004l-2.452-0.127
			l0.372,2.427c0.031,0.205,0.041,0.521,0.05,0.826c0.032,1.057,0.076,2.504,1.186,3.414c5.481,4.488,9.495,10.086,13.744,16.012
			c2.227,3.106,4.529,6.317,7.043,9.318c3.994,4.769,7.5,10.162,10.89,15.377c0.329,0.506,0.661,1.017,0.996,1.53
			c-0.034-0.035-0.068-0.069-0.102-0.104c-2.015-2.061-4.099-4.191-6.418-6.047c-1.154-0.924-2.319-1.885-3.445-2.814
			c-5.708-4.71-11.609-9.58-19.251-12.238c-6.833-2.376-11.74-6.549-14.585-12.404c-3.952-8.129-7.937-16.873-9.442-26.541
			c-0.105-0.671-0.055-0.969-0.031-1.062c0.082-0.047,0.34-0.163,1.037-0.273C428.677,572.129,429.389,572.074,430.103,572.074
			 M430.103,570.074c-0.797,0-1.607,0.059-2.43,0.189c-2.011,0.32-3.083,0.97-2.669,3.619c1.507,9.676,5.39,18.406,9.62,27.106
			c3.344,6.881,9.062,11.102,15.727,13.419c8.784,3.056,15.191,9.193,22.104,14.726c3.602,2.881,6.629,6.475,10.02,9.635
			c0.721,0.67,1.889,0.863,2.851,1.276c-0.23-1.124-0.148-2.459-0.741-3.343c-4.792-7.14-9.215-14.606-14.712-21.17
			c-7.091-8.464-12.337-18.456-21.054-25.594c-0.594-0.487-0.37-1.972-0.526-2.995c0.088,0.005,0.178,0.007,0.269,0.007
			c0.533,0,1.11-0.067,1.643-0.067c0.506,0,0.973,0.061,1.325,0.295c9.316,6.152,18.019,13.078,24.837,22.005
			c2.941,3.853,5.848,7.946,7.684,12.378c3.469,8.381,6.322,17.03,7.431,26.14c0.141,1.159,0.872,2.292,1.51,3.324
			c0.244,0.394,0.995,0.495,1.538,0.643c0.001,0,0.002,0,0.004,0c0.075,0,0.384-0.497,0.41-0.776
			c0.148-1.525,0.241-3.057,0.344-4.48c-0.256-3.728-0.11-7.416-0.821-10.934c-2.365-11.733-4.437-23.606-12.288-33.363
			c-10.193-12.664-22.622-22.391-37.908-27.997C439.711,572.444,435.147,570.074,430.103,570.074L430.103,570.074z"/>
	</g>
	<g>
		<path fill-rule="evenodd" clip-rule="evenodd" d="M497.681,761.317c-0.206-0.204-0.427-0.438-0.459-0.555
			c-1.396-13.594-5.039-25.86-10.825-36.446c-6.219-11.378-15.911-20.666-28.807-27.604c-0.425-0.229-0.93-0.34-1.544-0.34
			c-0.464,0-0.934,0.062-1.388,0.12c-0.361,0.048-0.723,0.098-1.063,0.104l-1.372,0.026l0.445,1.298
			c0.098,0.285,0.172,0.589,0.249,0.891c0.192,0.767,0.41,1.636,0.965,2.326c2.787,3.462,5.605,6.899,8.424,10.336
			c4.706,5.739,9.573,11.673,14.194,17.627c3.282,4.23,6.269,8.829,9.157,13.276c0.835,1.285,1.669,2.57,2.512,3.848
			c0.049,0.108,0.024,0.456-0.006,0.755c-0.333-0.062-0.64-0.137-0.802-0.262c-1.065-0.82-2.045-1.851-2.993-2.849l-0.239-0.251
			c-10.517-11.039-20.59-18.081-31.702-22.163c-7.38-2.71-11.688-6.648-13.969-12.771c-0.778-2.088-1.634-4.182-2.461-6.207
			c-2.538-6.211-5.163-12.633-5.775-19.512c-0.093-1.041-0.247-2.777-0.053-3.114c0.001,0.001,0.002,0.001,0.006,0.001
			c0.027,0,0.156-0.032,0.455-0.032c0.479,0,1.169,0.08,2.044,0.183l0.171,0.02c10.276,1.195,20.434,5.143,31.053,12.067
			c11.333,7.39,19.452,15.812,24.822,25.745c3.726,6.893,6.377,13.968,8.106,21.63c0.183,0.81,0.385,1.615,0.493,2.026l0.194,5.277
			c0.203,5.452,0.364,9.758,0.446,14.134C497.94,760.972,497.814,761.146,497.681,761.317z"/>
		<path d="M431.074,680.838c0.392,0.029,0.894,0.088,1.481,0.156l0.172,0.02c10.119,1.177,20.135,5.073,30.623,11.911
			c11.189,7.297,19.199,15.601,24.489,25.384c3.682,6.812,6.302,13.803,8.011,21.376c0.174,0.771,0.361,1.521,0.473,1.95
			c0.066,1.833,0.13,3.549,0.19,5.172c0.043,1.151,0.084,2.252,0.123,3.313c-1.916-9.587-5.049-18.394-9.361-26.282
			c-6.313-11.551-16.141-20.974-29.209-28.005c-0.575-0.31-1.235-0.46-2.019-0.46c-0.529,0-1.055,0.068-1.518,0.129
			c-0.354,0.046-0.688,0.09-0.953,0.095l-2.744,0.053l0.89,2.596c0.08,0.231,0.15,0.513,0.225,0.811
			c0.207,0.823,0.464,1.848,1.156,2.709c2.79,3.467,5.657,6.963,8.429,10.344c4.702,5.733,9.564,11.662,14.178,17.604
			c3.234,4.169,6.191,8.716,9.049,13.117c-10.449-10.945-20.915-18.246-31.988-22.313c-7.177-2.636-11.177-6.278-13.377-12.182
			c-0.784-2.104-1.643-4.204-2.473-6.236c-2.625-6.425-5.105-12.494-5.705-19.223C431.167,682.326,431.089,681.456,431.074,680.838
			 M430.627,678.818c-1.688,0-1.708,0.814-1.404,4.234c0.828,9.287,5.117,17.451,8.296,25.979
			c2.592,6.957,7.554,10.787,14.562,13.36c12.242,4.497,22.351,12.497,31.323,21.914c1.066,1.119,2.129,2.266,3.346,3.202
			c0.593,0.457,1.534,0.457,2.319,0.663c-0.005-0.843,0.323-1.906-0.066-2.498c-3.815-5.789-7.47-11.718-11.713-17.188
			c-7.352-9.472-15.109-18.632-22.629-27.977c-0.611-0.76-0.71-1.932-1.047-2.914c0.779-0.015,1.662-0.224,2.432-0.224
			c0.396,0,0.763,0.056,1.07,0.221c11.968,6.439,21.958,15.411,28.403,27.203c6.044,11.059,9.404,23.373,10.709,36.081
			c0.071,0.703,1.011,1.313,1.548,1.962c0.411-0.652,1.191-1.312,1.181-1.957c-0.109-5.76-0.356-11.515-0.646-19.54
			c-0.095-0.356-0.315-1.225-0.513-2.099c-1.731-7.673-4.372-14.8-8.202-21.886c-6.087-11.26-15.012-19.492-25.156-26.107
			c-9.407-6.134-19.896-10.875-31.484-12.223C431.957,678.911,431.197,678.818,430.627,678.818L430.627,678.818z M498.311,741.304
			c0,0.013,0.001,0.025,0.001,0.038c0.028,0.107,0.046,0.169,0.047,0.169S498.347,741.446,498.311,741.304L498.311,741.304z"/>
	</g>
	<g>
		<path fill-rule="evenodd" clip-rule="evenodd" d="M486.814,544.041c-0.314-0.313-0.635-0.65-0.69-0.89
			c-0.215-0.926-0.484-1.87-0.744-2.783c-0.701-2.464-1.426-5.012-1.101-7.25c0.729-5.025-0.999-9.268-2.669-13.37
			c-0.731-1.794-1.421-3.488-1.917-5.246c-4.336-15.325-16.261-25.003-27.793-34.362l-1.727-1.403
			c-0.518-0.422-1.177-0.48-1.811-0.48l-0.487,0.004c-0.136,0-0.27-0.002-0.395-0.016l-1.281-0.136l0.187,1.275
			c0.023,0.158,0.042,0.317,0.063,0.477c0.054,0.434,0.109,0.883,0.229,1.342c0.112,0.427,0.373,0.741,0.563,0.971l0.119,0.147
			c1.055,1.384,2.236,2.653,3.377,3.881c2.306,2.479,4.484,4.821,5.772,8.081c1.185,2.997,3.123,5.676,4.997,8.267
			c1.178,1.629,2.396,3.313,3.394,5.037c3.323,5.745,6.627,11.962,9.82,18.478c0.345,0.705,0.256,1.769,0.162,2.895
			c-0.009,0.109-0.019,0.221-0.027,0.331c-0.067-0.023-0.135-0.048-0.203-0.071c-1.043-0.368-2.028-0.715-2.77-1.289
			c-1.746-1.35-3.467-2.81-5.132-4.222c-2.28-1.935-4.638-3.935-7.121-5.707c-1.914-1.365-4.007-2.488-6.031-3.574
			c-1.689-0.907-3.437-1.845-5.034-2.903c-0.379-0.251-0.78-0.506-1.191-0.768c-2.122-1.352-4.527-2.883-5.001-4.565
			c-0.918-3.25-2.19-6.422-3.419-9.49c-2.333-5.821-4.747-11.841-4.716-18.456c0.013-2.742-0.771-5.45-1.53-8.068
			c-0.602-2.08-1.225-4.23-1.413-6.319c-0.203-2.26,0.176-3.045,0.42-3.313c0.104-0.113,0.273-0.242,0.677-0.242
			c0.536,0,1.573,0.236,3.471,1.362l1.558,0.922c9.333,5.522,18.983,11.232,26.363,19.581c6.245,7.064,11.186,14.646,15.105,23.176
			c0.744,1.622,1.576,3.233,2.38,4.793c1.749,3.391,3.558,6.897,4.51,10.607c0.784,3.055,1.07,5.474,1.374,8.034
			c0.198,1.67,0.402,3.395,0.752,5.411c-0.082,0.343-0.044,0.759,0.004,1.295c0.002,0.024,0.005,0.051,0.007,0.079l-0.05,0.839
			c-0.039,0.657-0.069,1.314-0.098,1.972c-0.073,1.623-0.148,3.302-0.376,4.909C487.368,543.448,487.069,543.776,486.814,544.041z"
			/>
		<path d="M432.414,461.303c0.292,0.007,1.127,0.148,2.938,1.222l1.558,0.923c9.266,5.482,18.847,11.151,26.123,19.382
			c6.18,6.99,11.068,14.491,14.946,22.932c0.754,1.642,1.591,3.265,2.4,4.833c1.803,3.496,3.506,6.798,4.43,10.397
			c0.767,2.99,1.05,5.377,1.349,7.904c0.194,1.636,0.394,3.323,0.73,5.291c-0.062,0.441-0.02,0.907,0.023,1.387
			c0,0.001,0,0.003,0,0.004l-0.045,0.766c-0.039,0.661-0.069,1.323-0.099,1.985c-0.042,0.94-0.083,1.852-0.15,2.746
			c-0.091-0.33-0.185-0.657-0.276-0.98c-0.703-2.472-1.367-4.807-1.073-6.833c0.767-5.295-1.012-9.665-2.733-13.891
			c-0.72-1.768-1.399-3.437-1.881-5.141c-4.422-15.631-16.472-25.41-28.125-34.867l-1.726-1.402
			c-0.865-0.705-1.931-0.705-2.442-0.705l-0.265,0.002l-0.222,0.002c-0.1,0-0.198,0-0.29-0.01l-2.562-0.271l0.373,2.549
			c0.022,0.151,0.041,0.303,0.06,0.455c0.055,0.445,0.118,0.949,0.254,1.473c0.167,0.641,0.539,1.089,0.761,1.356
			c0.032,0.039,0.064,0.076,0.094,0.116c1.084,1.422,2.282,2.71,3.44,3.955c2.24,2.408,4.355,4.683,5.575,7.767
			c1.23,3.114,3.206,5.845,5.116,8.486c1.217,1.683,2.367,3.271,3.338,4.951c3.312,5.726,6.605,11.922,9.788,18.416
			c0.144,0.295,0.16,0.82,0.134,1.397c-0.565-0.222-1.073-0.461-1.462-0.762c-1.727-1.336-3.44-2.789-5.097-4.193
			c-2.296-1.947-4.669-3.961-7.188-5.76c-1.965-1.401-4.086-2.539-6.138-3.641c-1.747-0.937-3.396-1.822-4.956-2.855
			c-0.384-0.254-0.79-0.513-1.206-0.777c-1.774-1.13-4.205-2.678-4.576-3.994c-0.933-3.301-2.214-6.498-3.454-9.59
			c-2.404-5.996-4.674-11.66-4.644-18.079c0.014-2.886-0.791-5.664-1.569-8.351c-0.617-2.127-1.199-4.137-1.377-6.13
			C432.147,462.183,432.325,461.522,432.414,461.303 M432.391,459.303c-1.681,0-2.376,1.487-2.093,4.644
			c0.433,4.82,2.961,9.54,2.939,14.293c-0.048,10.321,5.517,18.82,8.173,28.222c0.681,2.414,4.123,4.254,6.603,5.896
			c3.548,2.351,7.581,3.993,11.036,6.457c4.259,3.041,8.073,6.698,12.223,9.906c1.266,0.979,3.001,1.348,4.522,1.995
			c-0.026-1.711,0.507-3.698-0.174-5.092c-3.078-6.281-6.349-12.481-9.853-18.538c-2.605-4.502-6.452-8.429-8.326-13.171
			c-2.034-5.144-6.199-8.151-9.284-12.199c-0.187-0.245-0.438-0.485-0.511-0.765c-0.145-0.556-0.187-1.14-0.27-1.711
			c0.159,0.017,0.328,0.021,0.5,0.021c0.162,0,0.326-0.004,0.487-0.004c0.463,0,0.902,0.029,1.18,0.256
			c12.077,9.831,24.727,19.49,29.189,35.262c1.672,5.916,5.553,11.345,4.56,18.2c-0.481,3.317,1.058,6.954,1.86,10.403
			c0.185,0.797,1.099,1.424,1.678,2.124c0.542-0.688,1.448-1.327,1.554-2.078c0.326-2.3,0.344-4.637,0.482-6.962
			c0.271-0.025-0.189-2.106,0.081-2.13c-0.949-5.307-0.863-8.632-2.198-13.837c-1.422-5.541-4.586-10.419-6.951-15.568
			c-3.984-8.673-9.029-16.367-15.265-23.421c-7.891-8.927-18.09-14.73-28.16-20.701
			C434.705,459.815,433.378,459.302,432.391,459.303L432.391,459.303z"/>
	</g>
	<g>
		<path fill-rule="evenodd" clip-rule="evenodd" d="M496.194,492.75c-0.256-0.118-0.589-0.308-0.789-0.458
			c0.083-3.172,0.295-6.396,0.502-9.517l0.248-3.845l-0.034,0c0.007-0.11,0.015-0.223,0.022-0.336
			c0.055-0.825,0.083-1.263,0.056-1.54c-0.004-1.411-0.086-2.149-0.165-2.862c-0.073-0.66-0.148-1.342-0.166-2.639
			c-0.078-6.048,1.419-11.797,4.854-18.641c3.544-7.057,8.329-13.454,14.63-19.557c9.791-9.483,21.485-16.001,30.579-20.62
			c0.515-0.262,1.452-0.483,2.048-0.483c0.054,0,0.098,0.002,0.132,0.004c0.598,0.883,0.949,2.179,0.748,2.829
			c-0.999,3.229-1.657,6.583-2.294,9.825c-1.124,5.728-2.286,11.65-5.365,16.878c-1.96,3.327-3.641,6.867-5.266,10.291
			c-0.96,2.023-1.953,4.115-2.989,6.131c-0.071,0.141-0.257,0.293-0.481,0.445c-0.054-0.408-0.075-0.787,0.017-1.045
			c0.743-2.079,1.564-4.18,2.359-6.212c1.798-4.595,3.657-9.346,4.782-14.295c0.213-0.933-0.167-1.858-0.502-2.674
			c-0.123-0.301-0.249-0.602-0.333-0.894l-0.293-1.014l-0.996,0.347c-0.21,0.073-0.437,0.127-0.662,0.184
			c-0.653,0.163-1.396,0.348-1.955,0.881c-0.967,0.924-1.694,2.079-2.358,3.183c-2.503,4.16-4.997,8.325-7.492,12.49
			c-3.594,6-7.188,12-10.807,17.985c-0.815,1.346-1.797,2.653-2.747,3.917c-0.323,0.431-0.646,0.861-0.965,1.294
			c-1.024,1.395-2.179,2.753-3.294,4.067c-2.979,3.506-6.058,7.132-7.344,12.084c-0.284,1.094-1.606,2.144-2.885,3.158
			C496.719,492.326,496.452,492.539,496.194,492.75z"/>
		<path d="M547.552,413.292c0.282,0.598,0.42,1.256,0.353,1.5c-1.014,3.28-1.678,6.659-2.318,9.928
			c-1.159,5.905-2.254,11.482-5.247,16.563c-0.674,1.146-1.315,2.313-1.932,3.492c0.849-2.429,1.613-4.907,2.189-7.446
			c0.285-1.243-0.179-2.371-0.55-3.278c-0.121-0.293-0.234-0.57-0.298-0.791l-0.586-2.027l-1.993,0.693
			c-0.151,0.053-0.357,0.104-0.574,0.158c-0.736,0.184-1.652,0.412-2.407,1.131c-1.054,1.008-1.823,2.227-2.521,3.388
			c-2.503,4.16-4.998,8.326-7.493,12.491c-3.534,5.9-7.188,12-10.805,17.982c-0.789,1.304-1.713,2.533-2.69,3.834
			c-0.326,0.433-0.651,0.867-0.972,1.303c-1.004,1.366-2.096,2.651-3.251,4.011c-3.051,3.592-6.206,7.306-7.549,12.48
			c-0.195,0.753-1.44,1.754-2.47,2.572c0.097-2.814,0.286-5.664,0.469-8.433c0.062-0.936,0.124-1.871,0.182-2.807l0.13-2.083
			l-0.033,0c0.018-0.332,0.025-0.604,0.014-0.838c-0.002-1.504-0.088-2.28-0.171-3.03c-0.073-0.666-0.143-1.294-0.159-2.542
			c-0.076-5.88,1.388-11.486,4.748-18.179c3.492-6.955,8.213-13.264,14.433-19.287c9.694-9.39,21.304-15.859,30.336-20.446
			C546.659,413.488,547.14,413.355,547.552,413.292 M547.98,411.253c-0.762,0-1.852,0.262-2.501,0.591
			c-11.129,5.652-21.789,12.044-30.821,20.793c-5.992,5.803-10.985,12.173-14.828,19.826c-3.136,6.246-5.049,12.27-4.961,19.103
			c0.037,2.779,0.33,2.828,0.33,5.608c0.071,0.001-0.181,2.733-0.108,2.735c-0.265,4.231-0.596,8.458-0.694,12.69
			c-0.009,0.386,1.562,1.251,1.986,1.251c0.039,0,0.067-0.007,0.085-0.022c1.62-1.401,3.902-2.804,4.375-4.623
			c1.705-6.566,6.736-10.721,10.476-15.81c1.28-1.742,2.645-3.44,3.762-5.285c6.131-10.14,12.191-20.324,18.301-30.477
			c0.635-1.056,1.313-2.135,2.19-2.974c0.534-0.509,1.489-0.579,2.256-0.845c0.297,1.028,1.029,2.155,0.82,3.069
			c-1.604,7.056-4.686,13.611-7.108,20.395c-0.315,0.888,0.08,2.032,0.146,3.057c0.734-0.546,1.777-0.934,2.15-1.665
			c2.792-5.433,5.135-11.122,8.227-16.372c4.92-8.354,4.996-18,7.753-26.915c0.352-1.136-0.263-2.9-1.034-3.907
			C548.662,411.319,548.362,411.253,547.98,411.253L547.98,411.253z"/>
	</g>
	<g>
		<path fill-rule="evenodd" clip-rule="evenodd" d="M494.047,443.978c-0.217-0.875-0.421-1.703-0.501-2.529
			c-0.115-1.2-0.285-2.42-0.45-3.6c-0.399-2.861-0.813-5.819-0.427-8.542l0.273-1.952c1.338-9.611,2.722-19.549,8.703-27.743
			c0.802-1.099,1.596-2.205,2.391-3.313c3.198-4.456,6.506-9.063,10.272-13.064c3.34-3.549,7.569-6.452,11.66-9.26l1.213-0.833
			c3.686-2.541,7.584-4.926,11.354-7.233c1.551-0.948,3.101-1.896,4.642-2.858c0.288-0.18,0.619-0.34,1.075-0.562
			c0.063-0.03,0.126-0.061,0.192-0.093c0.062,0.081,0.125,0.161,0.187,0.24c0.241,0.308,0.634,0.81,0.718,1.045
			c-1.086,3.869-2.026,7.842-2.937,11.685c-2.148,9.076-4.371,18.46-8.646,26.995c-0.66,1.318-1.515,2.547-2.472,3.555
			c-0.288,0.305-0.756,0.533-1.271,0.76c-0.066-0.36-0.106-0.695-0.04-0.911c1.192-3.875,2.519-7.783,3.801-11.562l0.444-1.308
			c0.205-0.605,0.446-1.201,0.687-1.797c0.453-1.122,0.921-2.283,1.172-3.517c0.255-1.266,0.249-2.553,0.243-3.798
			c-0.003-0.524-0.006-1.048,0.012-1.568l0.096-2.767l-1.842,2.067c-0.333,0.374-0.689,0.735-1.045,1.096
			c-0.828,0.839-1.684,1.707-2.306,2.764c-3.967,6.74-7.943,13.623-11.789,20.278c-1.715,2.967-3.43,5.934-5.148,8.898
			c-0.465,0.802-0.99,1.604-1.499,2.379l-4.151,6.407c-4.144,6.407-8.429,13.033-12.74,19.48c-0.298,0.445-1.058,0.792-1.792,1.128
			c-0.025,0.012-0.051,0.023-0.077,0.035C494.048,443.98,494.047,443.979,494.047,443.978z"/>
		<path d="M544.153,363.652c0.042,0.057,0.083,0.113,0.12,0.165c-1.044,3.761-1.953,7.6-2.833,11.318
			c-2.136,9.02-4.345,18.347-8.567,26.777c-0.373,0.744-0.812,1.458-1.298,2.114c1.015-3.191,2.101-6.391,3.156-9.502l0.443-1.307
			c0.193-0.57,0.424-1.141,0.668-1.746c0.47-1.164,0.955-2.368,1.225-3.694c0.275-1.365,0.269-2.704,0.263-3.999
			c-0.003-0.511-0.006-1.022,0.012-1.53l0.189-5.534l-3.682,4.135c-0.311,0.349-0.651,0.693-1.011,1.059
			c-0.871,0.882-1.771,1.795-2.455,2.959c-3.969,6.744-7.947,13.628-11.795,20.286c-1.714,2.966-3.428,5.933-5.146,8.896
			c-0.451,0.778-0.946,1.534-1.47,2.333l-0.461,0.706c-1.233,1.902-2.465,3.805-3.695,5.708
			c-4.142,6.404-8.424,13.025-12.729,19.464c-0.051,0.076-0.184,0.17-0.354,0.27c-0.086-0.403-0.155-0.796-0.192-1.178
			c-0.117-1.222-0.289-2.453-0.455-3.644c-0.408-2.921-0.793-5.68-0.427-8.263l0.273-1.954c1.321-9.489,2.687-19.3,8.52-27.292
			c0.804-1.1,1.6-2.209,2.396-3.318c3.18-4.429,6.467-9.008,10.188-12.962c3.267-3.471,7.452-6.343,11.499-9.12l1.215-0.835
			c3.662-2.525,7.549-4.904,11.309-7.204c1.553-0.95,3.105-1.899,4.649-2.863C543.835,363.819,543.981,363.74,544.153,363.652
			 M544.767,361.12c-1.017,0.517-1.596,0.756-2.118,1.083c-5.363,3.347-10.835,6.532-16.034,10.117
			c-4.55,3.136-9.289,6.251-13.034,10.231c-4.737,5.033-8.647,10.86-12.742,16.472c-6.535,8.952-7.678,19.672-9.159,30.145
			c-0.567,4.006,0.476,8.25,0.872,12.378c0.127,1.313,0.536,2.598,0.815,3.896c1.149-0.674,2.715-1.068,3.383-2.066
			c5.573-8.336,10.982-16.782,16.44-25.197c0.671-1.034,1.365-2.058,1.983-3.124c5.641-9.727,11.231-19.481,16.935-29.171
			c0.816-1.388,2.144-2.476,3.235-3.702c-0.06,1.737,0.103,3.521-0.236,5.202c-0.361,1.782-1.234,3.452-1.825,5.192
			c-1.453,4.287-2.922,8.568-4.253,12.895c-0.243,0.784,0.145,1.761,0.243,2.651c0.932-0.49,2.064-0.791,2.749-1.515
			c1.052-1.108,1.954-2.425,2.641-3.796c6.158-12.293,8.006-25.899,11.677-38.949C546.539,363.14,545.307,362.018,544.767,361.12
			L544.767,361.12z"/>
	</g>
	<g>
		<path fill-rule="evenodd" clip-rule="evenodd" d="M484.156,428.767c-1.338-0.827-1.536-2.289-1.708-4.39
			c-0.084-1.02-0.17-2.075-0.504-3.007c-3.691-10.311-8.842-19.654-12.917-26.642c-1.059-1.817-2.669-3.605-4.534-5.035
			c-3.777-2.898-7.751-5.533-11.141-7.729c-0.775-0.501-1.718-0.558-2.55-0.608c-0.316-0.02-0.632-0.037-0.931-0.083l-1.321-0.208
			l0.175,1.326c0.031,0.233,0.036,0.483,0.043,0.732c0.021,0.707,0.044,1.508,0.488,2.18c1.605,2.428,3.281,4.862,4.9,7.217
			c2.772,4.029,5.638,8.194,8.221,12.42c3.316,5.428,6.291,11.207,9.167,16.796l1.302,2.526c0.129,0.251-0.016,0.973-0.123,1.5
			c-0.002,0.013-0.005,0.026-0.008,0.039c-0.334-0.08-0.784-0.198-0.879-0.312c-3.269-4.076-7.66-6.474-11.907-8.792
			c-2.173-1.187-4.421-2.414-6.448-3.838c-0.287-0.201-0.577-0.427-0.871-0.656c-1.057-0.822-2.255-1.754-3.604-1.836
			c-5.871-0.35-7.733-3.638-9.286-9.989c-0.465-1.907-0.947-3.81-1.427-5.712c-2.418-9.565-4.919-19.457-5.245-29.534
			c-0.061-1.877,0.088-2.374,0.187-2.501c0,0,0.002,0.001,0.005,0.001c0.015,0,0.059-0.007,0.135-0.007
			c0.526,0,1.532,0.33,2.541,0.687c14.301,5.054,26.537,14.424,38.507,29.487c7.696,9.686,10.893,18.819,10.367,29.615
			L484.156,428.767z"/>
		<path d="M434.044,363.754c0.556,0.152,1.245,0.396,1.538,0.5c14.116,4.989,26.209,14.256,38.057,29.167
			c7.522,9.467,10.655,18.38,10.154,28.894l-0.099,0.987l-0.178,1.789c-0.026-0.247-0.049-0.512-0.073-0.797
			c-0.089-1.084-0.181-2.207-0.56-3.263c-3.719-10.388-8.898-19.783-12.994-26.808c-1.123-1.927-2.824-3.818-4.79-5.325
			c-3.805-2.919-7.8-5.568-11.208-7.775c-0.995-0.643-2.124-0.711-3.031-0.766c-0.31-0.019-0.602-0.036-0.836-0.073l-2.643-0.415
			l0.35,2.652c0.022,0.165,0.028,0.391,0.036,0.631c0.022,0.756,0.053,1.792,0.654,2.703c1.61,2.434,3.288,4.873,4.91,7.231
			c2.764,4.018,5.623,8.172,8.191,12.375c3.297,5.396,6.264,11.16,9.132,16.733l0.553,1.072c-3.174-3.284-7.042-5.396-10.8-7.447
			c-2.248-1.227-4.371-2.386-6.352-3.778c-0.273-0.192-0.55-0.409-0.832-0.627c-1.171-0.912-2.5-1.945-4.16-2.045
			c-5.311-0.316-6.875-3.102-8.372-9.228c-0.466-1.91-0.948-3.815-1.43-5.72c-2.405-9.514-4.893-19.353-5.215-29.321
			C434.028,364.489,434.031,364.058,434.044,363.754 M433.375,361.625c-1.191,0-1.408,0.97-1.326,3.54
			c0.393,12.161,3.838,23.731,6.701,35.452c1.454,5.948,3.272,10.338,10.196,10.75c1.363,0.083,2.699,1.426,3.96,2.313
			c5.997,4.214,13.345,6.446,18.15,12.438c0.474,0.591,1.63,0.635,2.469,0.934c0.093-1.095,0.636-2.421,0.209-3.246
			c-3.374-6.529-6.676-13.119-10.504-19.385c-4.107-6.721-8.79-13.09-13.14-19.666c-0.419-0.636-0.264-1.652-0.375-2.492
			c1.042,0.164,2.283,0.02,3.092,0.543c3.771,2.443,7.513,4.949,11.076,7.683c1.668,1.279,3.225,2.937,4.279,4.745
			c4.949,8.487,9.496,17.136,12.839,26.475c0.985,2.751-0.468,7.259,4.017,8.497c0.317-3.196,0.636-6.392,0.77-7.741
			c0.626-12.84-4.137-22.173-10.583-30.286c-10.399-13.086-22.74-24.077-38.957-29.808
			C434.938,361.905,434.015,361.625,433.375,361.625L433.375,361.625z"/>
	</g>
	<g>
		<path fill-rule="evenodd" clip-rule="evenodd" d="M477.339,484.374c-0.276-0.075-0.553-0.165-0.644-0.262
			c-1.446-1.55-2.495-2.886-3.301-4.207c-4.565-7.477-10.487-13.134-18.103-17.296c-4.343-2.371-8.362-5.604-12.25-8.731
			c-1.093-0.879-2.184-1.756-3.282-2.616c-1.223-0.958-2.333-2.443-2.971-3.975c-3.538-8.484-4.837-17.708-6.094-26.627l-0.43-3.029
			c-0.089-0.617,0.031-1.152,0.337-1.506c0.242-0.279,0.592-0.426,1.014-0.426c0.25,0,0.521,0.051,0.805,0.151
			c5.134,1.812,9.744,3.49,14.161,5.679l0.103,0.051c8.275,4.101,16.833,8.342,22.486,15.774c0.824,1.083,1.66,2.162,2.497,3.243
			c6.798,8.774,13.828,17.848,14.423,29.804c0.068,1.371,0.049,2.785,0.03,4.153c-0.009,0.655-0.018,1.311-0.018,1.965v0.86
			l0.259,0.039c0.008,0.056,0.016,0.109,0.023,0.155c0.046,0.313,0.097,0.659,0.21,0.961l-0.34,1.87
			c-0.508-1.184-1.011-2.392-1.431-3.598c-4.982-14.307-11.489-28.92-25.255-38.889c-0.517-0.374-1.009-0.79-1.531-1.229
			c-0.936-0.789-1.902-1.605-3.038-2.18c-1.363-0.69-2.835-1.114-4.258-1.523c-0.599-0.173-1.199-0.345-1.789-0.538l-2.406-0.785
			l1.22,2.218c0.28,0.509,0.545,1.03,0.81,1.55c0.587,1.153,1.194,2.346,1.973,3.435c1.36,1.905,2.733,3.801,4.106,5.698
			c8.354,11.539,16.992,23.47,22.295,37.102c0.081,0.208,0.183,0.416,0.285,0.622c0.132,0.267,0.282,0.569,0.283,0.728
			C477.525,483.438,477.441,483.894,477.339,484.374z"/>
		<path d="M431.617,416.697c0.134,0,0.297,0.032,0.473,0.094c5.103,1.801,9.682,3.468,14.049,5.632l0.103,0.051
			c8.172,4.05,16.623,8.237,22.134,15.483c0.826,1.085,1.664,2.167,2.502,3.25c7.012,9.051,13.635,17.6,14.215,29.241
			c0.066,1.339,0.048,2.675,0.029,4.09c0,0.031-0.001,0.062-0.001,0.092c-4.958-13.864-11.568-27.826-24.963-37.526
			c-0.486-0.352-0.965-0.756-1.472-1.184c-0.979-0.826-1.992-1.681-3.231-2.308c-1.447-0.732-2.965-1.169-4.433-1.592
			c-0.588-0.169-1.176-0.338-1.755-0.527l-4.813-1.571l2.44,4.436c0.275,0.5,0.535,1.011,0.795,1.522
			c0.604,1.186,1.229,2.412,2.049,3.562c1.361,1.907,2.736,3.806,4.111,5.704c8.244,11.387,16.766,23.158,22.035,36.524
			c-0.648-0.796-1.184-1.546-1.637-2.288c-4.659-7.63-10.703-13.404-18.478-17.653c-4.264-2.328-8.249-5.533-12.102-8.633
			c-1.096-0.881-2.191-1.762-3.292-2.625c-1.094-0.856-2.09-2.191-2.665-3.573c-3.488-8.365-4.778-17.524-6.026-26.381
			c-0.142-1.011-0.285-2.022-0.43-3.033c-0.054-0.372,0.022-0.614,0.104-0.708C431.378,416.756,431.429,416.697,431.617,416.697
			 M431.617,414.696c-1.581,0-2.595,1.323-2.341,3.076c1.458,10.123,2.606,20.345,6.59,29.898c0.684,1.643,1.884,3.287,3.278,4.378
			c5.095,3.99,10.038,8.364,15.668,11.438c7.562,4.132,13.314,9.709,17.729,16.94c0.96,1.571,2.165,3.018,3.423,4.367
			c0.47,0.505,1.412,0.569,2.138,0.834c0.155-0.875,0.427-1.75,0.421-2.622c-0.004-0.57-0.414-1.136-0.636-1.706
			c-6.21-15.961-16.708-29.275-26.52-43.019c-1.076-1.506-1.821-3.251-2.72-4.886c1.979,0.646,4.069,1.074,5.905,2.002
			c1.623,0.821,2.934,2.242,4.434,3.327c13.252,9.597,19.729,23.567,24.897,38.407c0.794,2.283,1.837,4.48,2.765,6.717
			c0.436-2.401,0.566-3.113,1.001-5.513c-0.284-0.043-0.261-1.777-0.544-1.82c0-2.056,0.087-4.117-0.014-6.167
			c-0.684-13.74-9.44-23.501-17.123-33.603c-5.819-7.65-14.49-11.928-22.941-16.116c-4.58-2.269-9.439-4.02-14.271-5.726
			C432.353,414.763,431.971,414.696,431.617,414.696L431.617,414.696z"/>
	</g>
	<g>
		<path fill-rule="evenodd" clip-rule="evenodd" d="M496.132,390.128c-0.459-0.696-0.717-1.335-0.735-1.833
			c-0.059-1.631,0.047-3.321,0.15-4.955c0.043-0.688,0.086-1.377,0.119-2.065c-0.225-12.152,4.6-22.104,10.931-33.858
			c6.618-12.29,16.894-19.853,27.772-27.859l2.458-1.813c0.395-0.293,0.871-0.568,1.419-0.818c2.354-1.072,3.909-1.572,4.892-1.572
			c0.551,0,0.758,0.158,0.877,0.296c0.536,0.622,0.589,2.417,0.157,5.336c-1.109,7.496-2.806,15.052-4.446,22.359
			c-0.583,2.599-1.166,5.197-1.726,7.798c-0.287,1.327-0.734,2.298-1.226,2.662c-0.393,0.291-0.816,0.624-1.257,0.969
			c-1.359,1.065-3.413,2.676-4.354,2.676c-0.541-0.19-1.097-0.485-1.233-0.876c-0.205-0.591,0.4-1.646,0.934-2.578
			c0.454-0.792,0.923-1.612,1.08-2.417c0.717-3.658,1.952-7.313,3.146-10.847c0.63-1.863,1.281-3.79,1.854-5.709
			c0.244-0.814-0.002-1.638-0.22-2.364c-0.078-0.26-0.157-0.519-0.204-0.769l-0.33-1.765l-1.327,1.21
			c-0.161,0.147-0.343,0.284-0.522,0.422c-0.495,0.378-1.056,0.807-1.387,1.449c-2.265,4.4-4.504,8.813-6.743,13.225
			c-1.855,3.655-3.71,7.31-5.579,10.958c-0.408,0.8-0.956,1.543-1.535,2.331l-0.448,0.612c-6.393,8.872-12.791,17.742-19.207,26.598
			c-0.706,0.974-1.41,1.909-2.249,2.64C496.968,389.768,496.489,389.996,496.132,390.128z"/>
		<path d="M543.138,316.356L543.138,316.356c0.066,0,0.116,0.004,0.151,0.008c0.12,0.258,0.374,1.23-0.106,4.478
			c-1.104,7.459-2.796,14.997-4.433,22.286c-0.573,2.556-1.167,5.199-1.728,7.804c-0.306,1.413-0.713,1.975-0.844,2.072
			c-0.399,0.295-0.83,0.633-1.278,0.985c-0.946,0.742-2.871,2.252-3.641,2.446c-0.19-0.088-0.302-0.162-0.361-0.208
			c0.064-0.388,0.54-1.219,0.834-1.731c0.494-0.863,1.005-1.755,1.193-2.721c0.703-3.594,1.873-7.055,3.112-10.72
			c0.633-1.872,1.287-3.807,1.864-5.741c0.332-1.103,0.026-2.122-0.219-2.94c-0.075-0.25-0.146-0.486-0.18-0.666l-0.659-3.53
			l-2.654,2.419c-0.141,0.128-0.299,0.247-0.456,0.366c-0.55,0.42-1.234,0.943-1.669,1.787c-2.266,4.403-4.543,8.89-6.745,13.229
			c-1.854,3.654-3.709,7.308-5.579,10.958c-0.37,0.726-0.895,1.437-1.449,2.19c-0.152,0.207-0.304,0.414-0.454,0.621
			c-5.723,7.943-12.48,17.314-19.205,26.596c-0.671,0.925-1.336,1.811-2.088,2.465c-0.099-0.235-0.145-0.422-0.149-0.552
			c-0.057-1.582,0.043-3.172,0.149-4.855c0.043-0.694,0.087-1.388,0.12-2.081l0.003-0.065l-0.001-0.065
			c-0.221-11.844,4.551-21.677,10.811-33.3c6.512-12.092,16.699-19.59,27.485-27.528c0.82-0.603,1.641-1.207,2.464-1.816
			c0.336-0.25,0.752-0.489,1.233-0.709C540.819,316.855,542.326,316.356,543.138,316.356 M543.138,314.356
			c-1.218,0-2.956,0.591-5.308,1.662c-0.558,0.255-1.105,0.558-1.598,0.924c-11.564,8.558-23.279,16.562-30.517,30.001
			c-5.898,10.952-11.287,21.552-11.049,34.286c-0.11,2.367-0.354,4.741-0.269,7.102c0.035,0.995,0.648,2.053,1.272,2.873
			c0.018,0.024,0.06,0.035,0.119,0.035c0.389,0,1.551-0.469,2.062-0.912c0.918-0.8,1.679-1.81,2.402-2.807
			c6.417-8.856,12.815-17.727,19.208-26.6c0.721-1,1.505-1.98,2.062-3.071c4.125-8.052,8.183-16.137,12.321-24.181
			c0.334-0.648,1.119-1.066,1.694-1.59c0.167,0.894,0.682,1.89,0.449,2.664c-1.662,5.561-3.916,10.991-5.024,16.651
			c-0.43,2.204-4.268,5.37-0.27,6.977c0.144,0.058,0.301,0.084,0.471,0.084c1.61,0,4.295-2.424,6.206-3.842
			c0.871-0.646,1.354-2.087,1.607-3.255c2.163-10.056,4.681-20.063,6.184-30.221C545.865,316.38,545.391,314.356,543.138,314.356
			L543.138,314.356z"/>
	</g>
	<g>
		<path fill-rule="evenodd" clip-rule="evenodd" d="M485.728,384.936c-0.287-0.521-0.5-1.023-0.549-1.507
			c-1.887-18.559-10.687-34.041-26.154-46.015c-0.736-0.568-1.664-0.759-2.483-0.927c-0.324-0.066-0.647-0.131-0.952-0.223
			l-1.67-0.5l0.412,1.694c0.078,0.322,0.138,0.654,0.198,0.986c0.151,0.838,0.308,1.706,0.731,2.508l0.136,0.259
			c0.974,1.854,1.981,3.771,3.412,5.351c6.795,7.496,11.326,16.593,15.708,25.391c1.371,2.752,2.788,5.598,4.257,8.36
			c0.175,0.331,0.184,0.879,0.164,1.451c-0.409-0.189-0.777-0.387-1.043-0.637c-2.587-2.439-5.156-4.901-7.724-7.363
			c-3.374-3.235-6.863-6.58-10.346-9.82l-0.139-0.129c-1.651-1.537-3.521-3.28-5.688-3.684c-7.136-1.326-10.988-5.782-12.881-14.897
			c-0.7-3.368-1.411-6.733-2.122-10.099c-1.371-6.484-2.788-13.19-4.095-19.798c-0.134-0.677-0.09-1.192,0.123-1.451
			c0.215-0.262,0.672-0.316,1.018-0.316c0.267,0,0.57,0.032,0.902,0.096c6.438,1.236,11.33,5.401,16.061,9.429
			c0.719,0.612,1.436,1.223,2.156,1.822c13.248,11.03,21.59,21.679,26.251,33.511c1.941,4.927,3.247,10.247,4.398,14.939
			c0.483,1.968,0.941,3.832,1.423,5.599c-0.239,0.741-0.439,1.324-0.604,1.804c-0.333,0.971-0.535,1.557-0.64,2.208
			C485.882,383.628,485.799,384.284,485.728,384.936z"/>
		<path d="M436.04,314.568c0.204,0,0.444,0.026,0.714,0.078c6.179,1.186,10.755,5.083,15.601,9.208
			c0.722,0.615,1.442,1.228,2.165,1.829c13.114,10.918,21.363,21.439,25.961,33.108c1.917,4.865,3.158,9.921,4.358,14.812
			c0.458,1.868,0.895,3.643,1.352,5.335c-0.153,0.468-0.289,0.868-0.409,1.217c-2.556-17.439-11.34-32.071-26.146-43.533
			c-0.918-0.708-2.012-0.934-2.892-1.114c-0.318-0.065-0.619-0.127-0.866-0.201l-3.341-1l0.824,3.389
			c0.074,0.303,0.129,0.615,0.186,0.927c0.157,0.871,0.335,1.857,0.83,2.795l0.136,0.259c1.003,1.909,2.04,3.883,3.556,5.558
			c6.703,7.394,11.202,16.428,15.553,25.165c1.037,2.082,2.101,4.217,3.192,6.329c-2-1.899-4.002-3.817-5.952-5.686
			c-3.377-3.237-6.869-6.584-10.357-9.831l-0.138-0.129c-1.664-1.549-3.734-3.478-6.188-3.936
			c-6.761-1.256-10.262-5.347-12.083-14.118c-0.7-3.369-1.412-6.736-2.123-10.103c-1.37-6.481-2.786-13.183-4.092-19.785
			c-0.053-0.271-0.061-0.451-0.055-0.562C435.878,314.573,435.949,314.568,436.04,314.568 M436.04,312.568
			c-1.761,0-2.494,1.077-2.121,2.961c1.975,9.987,4.147,19.937,6.219,29.906c1.619,7.795,4.822,14.032,13.676,15.677
			c1.938,0.362,3.769,2.11,5.329,3.563c6.083,5.661,12.02,11.479,18.067,17.18c0.72,0.676,1.791,0.978,2.698,1.454
			c-0.065-1.166,0.246-2.53-0.251-3.466c-6.179-11.621-11.083-23.999-20.106-33.953c-1.41-1.557-2.414-3.521-3.404-5.405
			c-0.509-0.967-0.575-2.167-0.842-3.264c1.047,0.313,2.302,0.359,3.109,0.982c14.877,11.518,23.846,26.395,25.771,45.326
			c0.159,1.557,1.463,2.999,2.236,4.494c0.178-1.63,0.292-3.271,0.555-4.888c0.146-0.901,0.538-1.763,1.301-4.15
			c-1.703-6.16-3.133-13.814-5.935-20.927c-5.445-13.821-15.307-24.559-26.542-33.913c-5.598-4.657-10.986-9.99-18.668-11.464
			C436.731,312.605,436.368,312.568,436.04,312.568L436.04,312.568z"/>
	</g>
	<g>
		<path fill-rule="evenodd" clip-rule="evenodd" d="M497.462,343.801c-0.244,0-0.596-0.382-0.708-0.931
			c-0.589-2.866-0.944-5.816-1.321-8.94c-0.152-1.26-0.308-2.552-0.484-3.885c0.129-0.921,0.235-1.886,0.345-2.878
			c0.256-2.321,0.521-4.721,1.125-7.029c5.54-21.128,16.218-38.485,31.736-51.589c0.374-0.316,0.707-0.667,1.029-1.006
			c0.51-0.537,0.992-1.044,1.5-1.262c1.521-0.654,3.17-1.151,4.765-1.631c0.331-0.1,0.662-0.199,0.993-0.3
			c0.071,0.307,0.146,0.614,0.221,0.921c0.34,1.399,0.661,2.72,0.631,4.005c-0.272,12.111-2.186,24.272-5.686,36.146
			c-0.516,1.743-1.782,3.633-3.765,5.616c-1.246,1.249-3.259,2.47-3.957,2.545c-0.421-0.286-0.594-0.517-0.612-0.643
			c-0.043-0.294,0.501-0.922,0.897-1.38c0.527-0.609,1.072-1.24,1.306-2.005c0.556-1.828,1.209-3.676,1.841-5.463
			c2.034-5.751,4.137-11.698,3.514-18.265c-0.055-0.593-0.146-1.185-0.237-1.776l-0.115-0.768l-0.313-2.207l-1.44,1.702
			c-0.168,0.199-0.354,0.39-0.541,0.581c-0.469,0.481-1,1.027-1.316,1.727c-4.366,9.629-8.755,19.443-12.999,28.934l-0.938,2.098
			c-0.259,0.58-0.498,1.169-0.736,1.759c-0.339,0.835-0.658,1.624-1.036,2.391c-0.537,1.088-1.07,2.179-1.603,3.27
			c-1.815,3.716-3.691,7.559-5.708,11.232c-1.443,2.63-3.252,5.151-5,7.589l-0.562,0.784
			C497.937,343.628,497.632,343.801,497.462,343.801z"/>
		<path d="M535.716,265.614c0.314,1.294,0.604,2.517,0.577,3.641c-0.271,12.022-2.17,24.095-5.645,35.884
			c-0.461,1.56-1.676,3.355-3.515,5.195c-0.533,0.535-1.228,1.063-1.859,1.475c0.464-0.557,0.923-1.188,1.159-1.963
			c0.549-1.805,1.199-3.642,1.827-5.419c2.069-5.854,4.21-11.906,3.566-18.69c-0.06-0.635-0.153-1.246-0.245-1.837
			c-0.039-0.251-0.078-0.503-0.113-0.755l-0.627-4.414l-2.88,3.403c-0.154,0.182-0.325,0.354-0.495,0.529
			c-0.5,0.514-1.122,1.153-1.51,2.011c-4.367,9.63-8.756,19.444-13,28.934l-0.94,2.103c-0.269,0.602-0.514,1.207-0.75,1.792
			c-0.332,0.818-0.645,1.59-1.007,2.324c-0.537,1.089-1.07,2.181-1.604,3.273c-1.81,3.706-3.682,7.537-5.686,11.189
			c-1.415,2.577-3.206,5.073-4.937,7.487l-0.375,0.523c-0.537-2.711-0.875-5.521-1.233-8.488c-0.147-1.221-0.298-2.472-0.468-3.762
			c0.123-0.896,0.224-1.81,0.33-2.771c0.252-2.286,0.512-4.649,1.098-6.885c5.487-20.925,16.056-38.11,31.414-51.08
			c0.416-0.351,0.785-0.739,1.109-1.081c0.418-0.44,0.851-0.895,1.171-1.033C532.541,266.571,534.083,266.105,535.716,265.614
			 M537.191,263.067c-2.309,0.744-4.683,1.34-6.902,2.295c-1.074,0.461-1.835,1.625-2.78,2.423
			c-16.401,13.85-26.658,31.507-32.058,52.1c-0.898,3.433-1.067,7.056-1.511,10.156c0.629,4.729,0.992,8.929,1.835,13.032
			c0.193,0.937,0.865,1.729,1.688,1.729c0.512,0,1.084-0.307,1.635-1.077c1.973-2.758,3.999-5.51,5.626-8.474
			c2.61-4.756,4.929-9.672,7.33-14.541c0.67-1.358,1.17-2.799,1.789-4.184c4.629-10.35,9.254-20.703,13.936-31.028
			c0.356-0.789,1.129-1.387,1.71-2.073c0.118,0.833,0.27,1.661,0.348,2.497c0.793,8.367-2.988,15.686-5.315,23.341
			c-0.542,1.775-4.038,3.342-1.063,5.235c0.096,0.061,0.22,0.089,0.366,0.089c1.113,0,3.519-1.63,4.727-2.841
			c1.688-1.688,3.356-3.807,4.017-6.041c3.497-11.865,5.447-24.025,5.727-36.406C538.342,267.23,537.58,265.146,537.191,263.067
			L537.191,263.067z"/>
	</g>
	<g>
		<path fill-rule="evenodd" clip-rule="evenodd" d="M480.718,339.474c-0.093-0.06-0.17-0.116-0.2-0.156
			c-4.868-10.274-13.344-17.406-21.542-24.303c-0.963-0.81-1.925-1.62-2.88-2.433c-4.604-3.922-6.747-7.726-7.397-13.127
			c-0.895-7.44-2.257-14.897-3.459-21.477c-0.468-2.563-0.917-5.021-1.314-7.338c0.074-1.149,0.117-2.045,0.153-2.777
			c0.06-1.237,0.097-1.983,0.217-2.681c0.15-0.874,0.567-2.337,1.67-2.337c0.381,0,1.03,0.157,1.962,0.906
			c2.885,2.319,5.601,4.953,8.136,7.452c0.809,0.798,1.625,1.592,2.44,2.386c3.113,3.032,6.332,6.168,9.168,9.499
			c7.496,8.803,12.807,19.55,16.239,32.853c0.08,0.308-0.126,0.889-0.324,1.422c-0.054-0.027-0.108-0.055-0.162-0.082
			c-0.492-0.248-1.406-0.709-1.494-0.978c-3.679-11.373-10.756-20.976-22.946-31.136c-0.588-0.489-1.315-0.691-1.957-0.869
			c-0.244-0.067-0.487-0.134-0.717-0.219l-1.713-0.634l0.389,1.785c0.044,0.204,0.066,0.425,0.09,0.646
			c0.071,0.659,0.152,1.406,0.642,1.993c6.129,7.34,10.396,16.011,14.522,24.397c0.979,1.99,1.957,3.978,2.959,5.95
			c2.444,4.809,4.217,10.101,5.932,15.218c0.616,1.838,1.232,3.676,1.878,5.497C480.96,339.063,480.831,339.287,480.718,339.474z"/>
		<path d="M445.967,263.844c0.081,0,0.524,0.034,1.335,0.685c2.849,2.291,5.544,4.904,8.061,7.385
			c0.811,0.799,1.627,1.595,2.444,2.39c3.097,3.017,6.299,6.136,9.104,9.431c7.325,8.604,12.54,19.1,15.936,32.084
			c-0.01-0.007-0.019-0.013-0.027-0.02c-3.758-11.478-10.919-21.17-23.195-31.403c-0.753-0.626-1.627-0.868-2.329-1.063
			c-0.237-0.065-0.461-0.127-0.637-0.192l-3.427-1.269l0.778,3.57c0.029,0.132,0.05,0.331,0.073,0.541
			c0.078,0.72,0.184,1.707,0.869,2.527c6.052,7.248,10.292,15.865,14.392,24.198c0.963,1.958,1.959,3.982,2.965,5.962
			c2.233,4.394,3.909,9.227,5.498,13.956c-4.979-7.264-11.669-12.893-18.185-18.375c-0.961-0.809-1.922-1.617-2.875-2.429
			c-4.393-3.742-6.436-7.36-7.052-12.485c-0.899-7.47-2.265-14.944-3.469-21.538c-0.463-2.536-0.902-4.937-1.292-7.211
			c0.07-1.1,0.112-1.964,0.146-2.675c0.058-1.198,0.093-1.922,0.204-2.561C445.451,264.368,445.789,263.844,445.967,263.844
			 M445.966,261.844c-1.331,0-2.302,1.115-2.656,3.167c-0.209,1.208-0.181,2.458-0.39,5.681c1.428,8.356,3.545,18.566,4.787,28.882
			c0.715,5.947,3.232,9.928,7.741,13.769c9.113,7.761,18.83,15.141,24.179,26.425c0.23,0.484,0.955,0.736,1.449,1.095
			c0.329-0.722,1.112-1.606,0.92-2.143c-2.506-7.04-4.542-14.337-7.905-20.957c-5.316-10.462-9.961-21.382-17.604-30.535
			c-0.434-0.521-0.36-1.466-0.522-2.212c0.802,0.297,1.762,0.402,2.381,0.917c10.042,8.371,18.502,17.899,22.635,30.676
			c0.316,0.976,2.08,1.485,3.17,2.212c0.267-1.051,0.968-2.212,0.729-3.132c-3.153-12.225-8.208-23.576-16.446-33.251
			c-3.6-4.228-7.703-8.041-11.667-11.949c-2.643-2.605-5.324-5.198-8.212-7.519C447.606,262.208,446.728,261.844,445.966,261.844
			L445.966,261.844z"/>
	</g>
	<g>
		<path fill-rule="evenodd" clip-rule="evenodd" d="M496.324,292.863c-0.461-0.487-0.984-1.04-1.032-1.417
			c-0.317-2.503-0.238-5.118-0.162-7.646c0.313-10.406,3.113-20.737,8.56-31.584c5.313-10.58,12.551-19.955,22.776-29.502
			c0.401-0.374,1.237-1.152,1.627-1.156c0.403,0,1.149,0.333,1.445,0.562c0.143,2.702,0.126,5.47,0.108,8.148
			c-0.005,0.894-0.011,1.789-0.011,2.682v0.854l0.265,0.042c0.025,0.177,0.049,0.377,0.065,0.525
			c0.062,0.528,0.119,1.021,0.267,1.406c-0.315,1.916-0.6,3.676-0.872,5.363c-0.772,4.779-1.439,8.906-2.446,14.326
			c-0.244,1.31-1.001,2.794-2.076,4.072c-0.198,0.236-0.962,0.386-1.52,0.496c-0.021,0.004-0.041,0.008-0.061,0.012
			c-0.001-0.004-0.002-0.008-0.002-0.012c-0.116-0.696-0.225-1.354-0.11-1.875c0.691-3.133,1.44-6.313,2.166-9.388
			c0.724-3.07,1.447-6.14,2.129-9.22c0.177-0.796-0.099-1.563-0.342-2.24c-0.085-0.237-0.172-0.474-0.229-0.705l-0.398-1.609
			l-1.237,1.103c-0.191,0.17-0.41,0.328-0.629,0.487c-0.597,0.435-1.273,0.929-1.612,1.691c-1.234,2.777-2.443,5.616-3.611,8.362
			c-1.491,3.503-3.033,7.126-4.638,10.641c-2.3,5.039-4.811,10.093-7.238,14.981l-1.443,2.909
			c-3.106,6.276-5.914,11.821-8.581,16.952c-0.16,0.306-0.557,0.608-0.982,0.928C496.441,292.986,496.382,292.924,496.324,292.863z"
			/>
		<path d="M528.188,222.579c0.11,0.029,0.248,0.079,0.38,0.137c0.112,2.502,0.096,5.062,0.081,7.545
			c-0.006,0.896-0.012,1.792-0.012,2.688v1.708l0.364,0.058c0.043,0.352,0.101,0.743,0.21,1.119
			c-0.302,1.832-0.574,3.523-0.837,5.146c-0.771,4.772-1.438,8.895-2.441,14.3c-0.206,1.1-0.869,2.408-1.784,3.523
			c-0.014,0.006-0.029,0.012-0.046,0.018c-0.01-0.174-0.006-0.328,0.021-0.448c0.689-3.126,1.438-6.303,2.163-9.374
			c0.712-3.021,1.448-6.145,2.131-9.231c0.24-1.08-0.116-2.072-0.376-2.796c-0.082-0.229-0.16-0.444-0.2-0.607l-0.796-3.218
			l-2.476,2.205c-0.143,0.126-0.342,0.272-0.553,0.426c-0.663,0.484-1.489,1.086-1.938,2.094c-1.236,2.784-2.446,5.627-3.617,8.376
			c-1.488,3.497-3.027,7.114-4.627,10.617c-2.293,5.023-4.8,10.071-7.224,14.953l-1.443,2.909
			c-3.104,6.271-5.908,11.81-8.567,16.925c-0.004,0.006-0.009,0.013-0.014,0.02c-0.141-0.161-0.26-0.311-0.309-0.41
			c-0.299-2.408-0.222-4.962-0.147-7.433c0.309-10.257,3.074-20.452,8.454-31.165c5.259-10.471,12.43-19.755,22.563-29.218
			C527.401,223.209,527.9,222.745,528.188,222.579 M528.099,220.557c-0.005,0-0.01,0-0.015,0c-0.777,0.008-1.635,0.806-2.3,1.425
			c-9.284,8.669-17.178,18.217-22.987,29.784c-5.151,10.256-8.325,20.648-8.666,32.002c-0.079,2.602-0.156,5.233,0.169,7.801
			c0.128,1.023,1.349,1.909,2.073,2.856c0.679-0.608,1.602-1.087,1.996-1.843c2.924-5.624,5.777-11.288,8.59-16.969
			c2.946-5.951,5.939-11.882,8.694-17.918c2.869-6.283,5.447-12.699,8.253-19.012c0.338-0.759,1.313-1.233,1.993-1.839
			c0.206,0.833,0.732,1.737,0.565,2.489c-1.375,6.216-2.924,12.393-4.295,18.609c-0.229,1.04,0.152,2.212,0.25,3.324
			c1.09-0.339,2.567-0.352,3.185-1.086c1.068-1.27,1.992-2.917,2.294-4.533c1.391-7.486,2.145-12.575,3.385-20.089
			c-0.35-0.056-0.296-2.553-0.646-2.609c0-3.711,0.097-7.428-0.112-11.127C530.495,221.324,528.946,220.557,528.099,220.557
			L528.099,220.557z"/>
	</g>
	<g>
		<path fill-rule="evenodd" clip-rule="evenodd" d="M479.659,283.885c-0.11-0.042-0.214-0.091-0.263-0.131
			c-0.559-0.664-1.214-1.344-1.847-2.001c-1.552-1.611-3.018-3.133-3.623-4.884c-1.962-5.673-6.1-9.295-10.101-12.797l-1.023-0.897
			c-7.002-6.183-9.496-11.856-8.338-18.969c0.208-1.271-0.049-2.555-0.322-3.914c-0.124-0.615-0.25-1.25-0.343-1.919
			c0.077-1.829,0.164-3.687,0.251-5.567c0.23-4.903,0.468-9.973,0.543-15.044c0.008-0.563,0.114-1.235,0.571-1.235
			c0.216,0,0.488,0.1,0.693,0.253c3.07,2.304,5.445,4.497,7.26,6.705c1.427,1.738,2.695,3.692,3.921,5.582
			c1.011,1.559,2.057,3.171,3.205,4.687c4.921,6.501,7.77,14.175,10.525,21.595c0.79,2.125,1.605,4.324,2.46,6.468
			c0.083,0.209,0.052,0.551-0.022,0.929c-0.375-0.45-0.722-0.895-1.012-1.366c-1.662-2.694-3.31-5.397-4.958-8.101
			c-2.712-4.448-5.516-9.047-8.34-13.533c-0.681-1.081-1.915-1.706-3.004-2.256l-0.361-0.184c-0.241-0.125-0.519-0.188-0.824-0.188
			c-0.354,0-0.702,0.084-1.008,0.158c-0.155,0.037-0.31,0.077-0.455,0.095l-0.996,0.125l0.128,0.995
			c0.018,0.136,0.023,0.276,0.031,0.417c0.022,0.42,0.046,0.897,0.261,1.371c1.672,3.71,3.356,7.417,5.04,11.124
			c3.531,7.774,7.183,15.812,10.668,23.761c0.91,2.074,1.324,4.472,1.723,6.791l0.171,0.986
			C480.253,283.114,479.934,283.542,479.659,283.885z"/>
		<path d="M455.593,217.831c2.844,2.163,5.055,4.222,6.752,6.286c1.392,1.695,2.588,3.54,3.854,5.492
			c1.021,1.574,2.077,3.202,3.247,4.747c4.788,6.325,7.479,13.515,10.307,21.127c-0.555-0.909-1.108-1.817-1.663-2.726
			c-2.713-4.451-5.519-9.053-8.348-13.544c-0.828-1.316-2.253-2.037-3.398-2.616l-0.354-0.18c-0.385-0.198-0.816-0.299-1.283-0.299
			c-0.474,0-0.9,0.103-1.243,0.186c-0.118,0.028-0.234,0.062-0.344,0.075l-1.991,0.25l0.257,1.99
			c0.014,0.111,0.018,0.226,0.024,0.34c0.024,0.458,0.056,1.085,0.347,1.729c1.673,3.712,3.357,7.419,5.042,11.127
			c3.53,7.771,7.18,15.807,10.664,23.75c0.833,1.899,1.237,4.149,1.616,6.34c-0.27-0.286-0.542-0.568-0.81-0.846
			c-1.473-1.529-2.865-2.974-3.398-4.518c-2.049-5.924-6.288-9.634-10.387-13.222c-0.341-0.298-0.681-0.596-1.02-0.895
			c-6.712-5.927-9.109-11.328-8.013-18.058c0.237-1.451-0.038-2.821-0.328-4.272c-0.115-0.573-0.233-1.164-0.321-1.772
			c0.076-1.797,0.161-3.624,0.248-5.471C455.279,227.958,455.516,222.899,455.593,217.831 M455.166,215.525
			c-0.793,0-1.547,0.553-1.571,2.22c-0.105,7.027-0.521,14.048-0.798,20.674c0.294,2.205,0.948,3.99,0.681,5.625
			c-1.395,8.563,2.543,14.476,8.663,19.879c4.253,3.754,8.802,7.377,10.84,13.271c0.948,2.745,3.688,4.883,5.686,7.24
			c0.243,0.287,0.97,0.539,1.286,0.539c0.068,0,0.117-0.012,0.138-0.037c0.526-0.636,1.283-1.518,1.167-2.171
			c-0.479-2.704-0.873-5.519-1.963-8.004c-5.124-11.681-10.471-23.265-15.713-34.895c-0.2-0.443-0.146-1-0.211-1.503
			c0.432-0.054,0.934-0.246,1.338-0.246c0.135,0,0.259,0.021,0.366,0.077c1.076,0.555,2.376,1.131,2.977,2.084
			c4.509,7.16,8.852,14.425,13.293,21.626c0.671,1.088,1.592,2.021,2.397,3.027c0.164-1.171,0.798-2.532,0.417-3.486
			c-3.853-9.668-6.689-19.804-13.117-28.297c-2.521-3.33-4.507-7.082-7.15-10.301c-2.128-2.589-4.742-4.851-7.432-6.87
			C456.106,215.713,455.629,215.525,455.166,215.525L455.166,215.525z"/>
	</g>
	<g>
		<path fill-rule="evenodd" clip-rule="evenodd" d="M489.155,200.245c-0.144-0.368-0.313-0.822-0.269-1.019
			c0.688-3.003,1.47-6.052,2.226-9c1.542-6.016,3.136-12.237,4.05-18.479c0.669-4.564,0.178-9.31-0.296-13.898
			c-0.16-1.545-0.319-3.087-0.435-4.62c-0.074-0.99-0.912-1.691-1.651-2.311c-0.259-0.216-0.519-0.431-0.726-0.651l-1.516-1.616
			l-0.28,2.975c-0.049,0.542-0.099,1.085-0.158,1.626c-0.149,1.377-0.302,2.753-0.455,4.129c-0.253,2.287-0.507,4.573-0.745,6.862
			c-0.245,2.358-0.486,4.717-0.727,7.076c-0.644,6.302-1.31,12.818-2.046,19.215c-0.025,0.082-0.188,0.359-1.086,0.98
			c-0.084-0.042-0.186-0.1-0.25-0.148c-0.948-2.434-2.24-4.731-3.49-6.955c-3.076-5.47-5.982-10.637-4.168-17.783
			c0.68-2.68,1.275-5.417,1.852-8.064c2.083-9.578,4.051-18.625,9.9-26.55c0.404-0.547,1.111-0.975,1.86-1.427
			c0.116-0.07,0.233-0.141,0.349-0.212c0.057,0.071,0.115,0.142,0.172,0.213c0.486,0.6,0.946,1.167,1.119,1.732
			c3.597,11.733,5.381,23.263,5.788,37.384c0.817,7.915-2.813,16.805-6.657,26.217c-0.547,1.341-1.097,2.687-1.636,4.035
			C489.74,200.046,489.406,200.161,489.155,200.245z"/>
		<path d="M490.864,131.687c0.263,0.341,0.486,0.667,0.566,0.927c3.569,11.644,5.341,23.092,5.744,37.12l0.002,0.074l0.008,0.074
			c0.75,7.24-2.475,15.558-6.067,24.372c0.32-1.271,0.644-2.535,0.963-3.781c1.548-6.041,3.149-12.288,4.071-18.582
			c0.687-4.688,0.189-9.496-0.291-14.146c-0.156-1.513-0.318-3.078-0.432-4.59c-0.105-1.412-1.16-2.295-2.007-3.004
			c-0.24-0.201-0.488-0.409-0.638-0.568l-3.031-3.231l-0.418,4.411l-0.071,0.774c-0.049,0.537-0.097,1.073-0.156,1.609
			c-0.149,1.375-0.302,2.749-0.454,4.124c-0.254,2.29-0.508,4.579-0.746,6.872c-0.245,2.358-0.486,4.717-0.727,7.075
			c-0.622,6.085-1.264,12.37-1.97,18.55c-0.896-2.038-1.98-3.967-3.036-5.843c-2.976-5.291-5.786-10.288-4.071-17.047
			c0.684-2.696,1.282-5.442,1.859-8.098c2.06-9.47,4.006-18.416,9.729-26.169C489.918,132.3,490.36,131.999,490.864,131.687
			 M491.329,129.029c-1.098,0.786-2.484,1.358-3.247,2.392c-7.673,10.396-8.861,22.92-11.917,34.962
			c-2.699,10.637,4.566,17.197,7.74,25.46c0.128,0.331,0.914,0.728,1.271,0.728c0.055,0,0.1-0.009,0.131-0.03
			c0.727-0.479,1.732-1.183,1.815-1.894c1.007-8.759,1.863-17.534,2.774-26.302c0.381-3.665,0.802-7.324,1.199-10.986
			c0.087-0.802,0.154-1.606,0.23-2.41c0.733,0.782,2.047,1.519,2.109,2.353c0.46,6.099,1.609,12.355,0.739,18.298
			c-1.354,9.241-4.167,18.265-6.262,27.403c-0.171,0.754,0.411,1.68,0.644,2.525c0.761-0.359,1.987-0.533,2.217-1.105
			c4.316-10.817,9.363-21.477,8.402-30.749c-0.424-14.742-2.36-26.326-5.831-37.648
			C493.005,130.927,492.015,130.024,491.329,129.029L491.329,129.029z"/>
	</g>
	<g>
		<path fill-rule="evenodd" clip-rule="evenodd" d="M496.572,245.295c-0.387-0.616-0.984-2.322-1.288-3.19l-0.215-0.61
			c-3.705-10.383-1.612-20.921,0.641-29.982c0.697-2.803,1.825-5.586,2.915-8.278c1.059-2.615,2.155-5.318,2.889-8.1
			c1.336-5.061,4.434-8.797,7.712-12.752c1.216-1.467,2.473-2.983,3.618-4.56c0.273-0.375,0.926-0.672,1.556-0.959
			c0.04-0.019,0.081-0.037,0.121-0.056c0.016,0.033,0.031,0.066,0.046,0.099c0.335,0.711,0.65,1.383,0.746,2.032
			c0.613,4.151,1.143,8.242,1.654,12.197l0.495,3.803c-0.103,2.061-0.187,4.052-0.268,5.993c-0.2,4.767-0.39,9.269-0.816,13.713
			c-0.196,2.036-1.076,4.293-2.354,6.038c-0.882,1.2-2.164,2.15-3.524,3.153c0.136-1.528,0.271-2.975,0.607-4.378
			c0.233-0.97,0.483-1.939,0.733-2.907c1.368-5.299,2.783-10.779,1.459-16.578c-0.178-0.774-0.684-1.377-1.13-1.91
			c-0.167-0.199-0.334-0.396-0.476-0.6l-1.037-1.5l-0.707,1.681c-0.07,0.168-0.148,0.335-0.226,0.501
			c-0.189,0.409-0.386,0.832-0.517,1.31c-1.071,3.892-2.136,7.788-3.2,11.684c-1.94,7.096-3.88,14.192-5.859,21.277
			c-0.826,2.96-1.875,5.843-2.89,8.631c-0.295,0.813-0.164,1.707-0.047,2.495c0.085,0.577,0.191,1.296,0.012,1.515
			C497.187,245.101,497.043,245.23,496.572,245.295z"/>
		<path d="M514.032,178.15c0.141,0.336,0.249,0.652,0.291,0.934c0.612,4.143,1.141,8.228,1.651,12.179
			c0.165,1.273,0.326,2.516,0.483,3.717c-0.101,2.031-0.183,3.995-0.263,5.909c-0.2,4.753-0.389,9.242-0.813,13.659
			c-0.177,1.837-1.006,3.961-2.163,5.541c-0.4,0.545-0.91,1.046-1.485,1.532c0.087-0.661,0.195-1.304,0.346-1.929
			c0.232-0.966,0.481-1.929,0.73-2.892c1.397-5.415,2.844-11.015,1.465-17.053c-0.231-1.007-0.845-1.739-1.339-2.327
			c-0.161-0.192-0.313-0.374-0.419-0.527l-2.075-2.998l-1.413,3.361c-0.066,0.157-0.139,0.313-0.211,0.468
			c-0.197,0.426-0.421,0.908-0.573,1.463c-1.071,3.895-2.137,7.792-3.201,11.688c-1.907,6.976-3.879,14.189-5.858,21.272
			c-0.814,2.922-1.857,5.787-2.866,8.56c-0.094,0.26-0.156,0.521-0.192,0.78l-0.115-0.327c-3.612-10.121-1.548-20.485,0.67-29.404
			c0.68-2.735,1.745-5.363,2.871-8.145c1.071-2.644,2.179-5.377,2.929-8.22c1.28-4.847,4.309-8.501,7.516-12.369
			c1.226-1.479,2.492-3.007,3.655-4.608C513.708,178.341,513.854,178.248,514.032,178.15 M515.01,175.447
			c-1.009,0.583-2.348,0.926-2.975,1.788c-4.123,5.674-9.572,10.387-11.488,17.645c-1.475,5.586-4.415,10.794-5.807,16.392
			c-2.503,10.068-4.27,20.311-0.613,30.56c0.577,1.616,1.5,4.494,2.147,4.494c0.003,0,0.007,0,0.011,0
			c3.496-0.179,1.287-3.212,1.913-4.937c1.047-2.876,2.092-5.76,2.913-8.705c3.067-10.977,6.038-21.979,9.062-32.967
			c0.159-0.583,0.463-1.125,0.699-1.687c0.497,0.718,1.271,1.373,1.453,2.164c1.504,6.588-0.682,12.763-2.19,19.029
			c-0.53,2.209-0.584,4.533-0.854,6.806c1.886-1.56,4.146-2.844,5.551-4.756c1.344-1.835,2.324-4.272,2.542-6.533
			c0.605-6.301,0.732-12.645,1.092-19.841c-0.646-4.904-1.337-10.515-2.163-16.106C516.131,177.638,515.456,176.56,515.01,175.447
			L515.01,175.447z"/>
	</g>
	<path fill-rule="evenodd" clip-rule="evenodd" d="M498.366,822.474c4.144-0.381,8.283-0.903,12.439-1.1
		c4.907-0.233,7.686,3.084,5.721,7.493c-4.2,9.431-3.156,19.278-2.522,28.943c0.337,5.16-1.407,8.655-4.453,12.076
		c-0.53,0.597-1.718,1.262-2.244,1.041c-0.675-0.282-1.283-1.381-1.408-2.208c-0.538-3.546-0.848-7.127-1.314-10.686
		c-1.49-11.345-6.834-21.147-12.354-30.891c-0.807-1.421-1.133-3.117-1.68-4.686c1.44-0.137,2.879-0.31,4.324-0.391
		c1.134-0.063,2.276-0.013,3.415-0.013C498.313,822.194,498.34,822.334,498.366,822.474z"/>
	<g>
		<path fill-rule="evenodd" clip-rule="evenodd" d="M478.868,230.084c-1.521-2.019-3.031-4.047-4.54-6.075
			c-3.736-5.021-7.599-10.212-11.599-15.168c-2.219-2.75-2.585-5.576-2.467-9.529c0.257-8.532,1.274-15.469,3.203-21.831
			c0.109-0.36,0.589-0.802,1.098-1.269c0.094-0.086,0.189-0.174,0.286-0.264c0.385,0.395,0.763,0.766,1.133,1.128
			c1.125,1.103,2.096,2.055,2.668,3.141c3.535,6.701,7.119,13.899,11.28,22.655c0.02,0.178-0.268,0.856-0.439,1.261
			c-0.031,0.074-0.063,0.148-0.094,0.222c-0.325-0.09-0.702-0.204-0.807-0.323c-0.932-1.058-1.82-2.208-2.68-3.32
			c-0.631-0.816-1.263-1.633-1.919-2.428c-0.373-0.452-0.89-0.667-1.306-0.84c-0.134-0.056-0.269-0.11-0.392-0.175l-1.204-0.638
			l-0.248,1.339c-0.032,0.173-0.068,0.345-0.104,0.518c-0.091,0.436-0.186,0.886-0.225,1.365l-0.022,0.248
			c-0.057,0.616-0.121,1.314,0.108,1.993c0.923,2.727,1.863,5.446,2.803,8.166c1.502,4.349,3.056,8.845,4.508,13.287
			c0.688,2.111,1.021,4.292,1.385,6.925c0.008,0.058,0.008,0.122,0.001,0.19C479.155,230.468,479.012,230.275,478.868,230.084z"/>
		<path d="M464.822,177.338c0.158,0.156,0.312,0.307,0.46,0.453c1.065,1.043,1.984,1.945,2.484,2.893
			c3.438,6.518,6.924,13.509,10.945,21.953c-0.677-0.812-1.329-1.655-2.01-2.535c-0.624-0.807-1.269-1.642-1.938-2.453
			c-0.531-0.644-1.231-0.935-1.694-1.127c-0.105-0.043-0.211-0.084-0.307-0.135l-2.407-1.276l-0.496,2.679
			c-0.03,0.165-0.065,0.33-0.1,0.494c-0.093,0.444-0.198,0.947-0.243,1.49l-0.021,0.237c-0.063,0.679-0.14,1.524,0.157,2.406
			c0.923,2.728,1.864,5.449,2.804,8.17c1.501,4.345,3.053,8.837,4.502,13.271c0.318,0.976,0.559,1.976,0.762,3.033
			c-0.865-1.157-1.728-2.317-2.591-3.477c-3.742-5.028-7.611-10.228-11.623-15.2c-2.035-2.522-2.359-5.063-2.246-8.871
			c0.254-8.442,1.258-15.296,3.149-21.541C464.459,177.703,464.628,177.526,464.822,177.338 M464.872,174.514
			c-0.966,1.059-2.08,1.741-2.363,2.677c-2.18,7.191-3.02,14.573-3.246,22.091c-0.113,3.793,0.137,7.025,2.688,10.187
			c5.576,6.909,10.771,14.124,16.118,21.217c0.541,0.718,1.056,1.454,1.583,2.182c0.228-0.847,0.745-1.732,0.634-2.532
			c-0.33-2.389-0.681-4.817-1.425-7.099c-2.348-7.183-4.89-14.302-7.313-21.462c-0.188-0.556-0.087-1.229-0.038-1.839
			c0.049-0.599,0.206-1.189,0.316-1.783c0.472,0.25,1.081,0.387,1.395,0.768c1.568,1.901,2.994,3.925,4.621,5.774
			c0.463,0.525,1.431,0.607,2.167,0.891c0.306-1.061,1.182-2.395,0.826-3.142c-3.627-7.632-7.356-15.22-11.299-22.693
			C468.568,177.917,466.722,176.547,464.872,174.514L464.872,174.514z"/>
	</g>
</g>
</svg>
