<?xml version="1.0" encoding="utf-8"?>
<!-- Generator: Adobe Illustrator 16.0.0, SVG Export Plug-In . SVG Version: 6.00 Build 0)  -->
<!DOCTYPE svg PUBLIC "-//W3C//DTD SVG 1.0//EN" "http://www.w3.org/TR/2001/REC-SVG-20010904/DTD/svg10.dtd">
<svg version="1.0" xmlns="http://www.w3.org/2000/svg" xmlns:xlink="http://www.w3.org/1999/xlink" x="0px" y="0px" width="1000px"
	 height="1000px" viewBox="0 0 1000 1000" enable-background="new 0 0 1000 1000" xml:space="preserve">
<g id="Outlines">
	<g id="Layer_20_copy">
		<g>
			<path d="M630.757,488.958c19.55,0,34.104,5.482,42.091,15.854c8.166,10.605,9.732,26.612,4.53,46.293
				c-6.798,25.724-20.501,48.873-34.406,70.07c-0.568,0.21-1.432,0.42-2.065,0.42l-0.011,0.003c-4.919-0.521-9.961-1.541-15.3-2.62
				c-8.094-1.637-16.463-3.328-24.997-3.328c-2.534,0-5.007,0.153-7.35,0.456c-1.943,0.252-3.74,0.379-5.342,0.379
				c-8.03,0-11.801-2.336-18.302-16.16c-15.229-32.37-34.533-47.317-75.011-55.635c0.036-0.032,0.072-0.064,0.107-0.097
				c18.703-16.825,39.272-30.023,61.135-39.228c21.867-9.206,45.689-14.694,70.805-16.313l0.03-0.002l0.029-0.002
				c0.216-0.015,0.431-0.028,0.609-0.035C628.47,488.976,629.629,488.958,630.757,488.958 M630.757,478.957
				c-1.239,0-2.488,0.02-3.763,0.061c-0.332,0.012-0.664,0.031-0.996,0.055c-52.715,3.398-98.734,22.777-137.984,58.086
				c-4.309,3.875-7.816,8.646-12.885,14.333c48.822,7,69.197,18.59,85.428,53.09c6.615,14.067,12.761,21.903,27.351,21.903
				c2.037,0,4.235-0.152,6.626-0.462c2.005-0.259,4.028-0.373,6.065-0.373c12.793,0,26.142,4.504,39.243,5.893
				c0.338,0.035,0.694,0.053,1.064,0.053c3.494,0,8.194-1.545,9.752-3.908c15.212-23.113,29.247-47.008,36.388-74.027
				C699.261,507.452,677.41,478.957,630.757,478.957L630.757,478.957z"/>
		</g>
	</g>
	<g id="Layer_19_copy">
		<g>
			<path d="M527.035,379.722c9.895,0,17.916,5.775,23.842,17.164c9.88,18.994,12.789,39.685,15.819,66.84l0.085,0.762
				c-0.692,0.433-1.924,1.069-3.998,1.783c-31.507,10.856-61.491,28.165-91.665,52.916c-0.496,0.406-0.907,0.715-1.241,0.949
				c-0.009-0.011-0.019-0.021-0.028-0.033c-1.737-1.98-3.646-3.428-5.181-4.591l-0.082-0.062
				c-14.933-11.275-23.495-20.82-23.075-36.244c0.205-7.504-2.321-16.348-6.928-24.261c-1.206-2.073-1.798-3.794-1.624-4.722
				c0.091-0.482,0.601-1.879,3.375-4.442c6.776-6.258,13.448-12.761,19.901-19.051c9.642-9.398,19.613-19.116,29.86-27.926
				c6.696-5.758,15.64-10.987,27.341-15.986C518.249,380.764,522.823,379.722,527.035,379.722 M527.035,369.722
				c-5.514,0-11.39,1.279-17.525,3.9c-10.59,4.524-21.277,10.157-29.934,17.6c-17.367,14.932-33.18,31.654-50.025,47.213
				c-7.168,6.621-8.746,12.715-3.609,21.541c3.246,5.576,5.746,12.643,5.574,18.959c-0.574,21.055,12.156,33.254,27.045,44.496
				c1.324,1.004,2.684,2.027,3.77,3.266c2.443,2.789,4.725,4.04,7.089,4.04c2.49,0,5.073-1.386,8.04-3.817
				c26.688-21.891,55.801-39.898,88.582-51.193c8.5-2.928,12.422-7.037,10.594-13.109c-2.914-26.111-5.914-49.252-16.887-70.346
				C552.088,377.548,540.668,369.722,527.035,369.722L527.035,369.722z"/>
		</g>
	</g>
	<g id="Layer_17_copy">
		<g>
			<path d="M514.688,157.149c5.236,8.11,10.182,15.786,14.484,23.589c18.231,33.046,31.273,61.486,35.669,92.871
				c0.424,3.031-0.938,8-2.857,10.426c-10.828,13.689-22.568,27.179-33.922,40.226c-3.454,3.969-6.908,7.938-10.346,11.92
				c-1.011,1.171-3.08,1.928-5.273,1.928c-1.98,0-4.538-0.647-5.78-2.467c-9.07-13.279-17.94-27.556-26.365-42.434
				c-3.314-5.85-6.216-11.904-9.288-18.315c-3.149-6.571-6.406-13.366-10.159-19.946c-2.212-3.875-2.17-6.64,0.162-10.564
				c13.542-22.787,27.528-45.885,42.758-70.614C507.113,168.342,510.664,163.069,514.688,157.149 M514.924,138.955
				c-7.59,11.363-13.941,20.273-19.668,29.57c-14.457,23.475-28.756,47.051-42.84,70.75c-3.891,6.547-4.504,13.18-0.25,20.631
				c7.074,12.402,12.391,25.807,19.43,38.232c8.34,14.727,17.266,29.172,26.809,43.145c3.129,4.583,8.604,6.827,14.038,6.827
				c4.897,0,9.762-1.822,12.845-5.395c14.992-17.371,30.313-34.49,44.539-52.475c3.605-4.557,5.723-12.262,4.918-18.016
				c-4.875-34.814-20.066-65.955-36.816-96.316C531.244,163.787,523.318,152.349,514.924,138.955L514.924,138.955z"/>
		</g>
	</g>
	<g id="Layer_15_copy">
		<g>
			<path d="M427.427,260.72c13.009,34.673,33.482,64.788,54.237,93.732c-23.772,11.216-45.024,27.565-65.609,50.452
				c-13.146-18.669-27.926-32.827-45.075-43.198c-0.003-0.001-0.005-0.003-0.008-0.004c0.099-0.471,0.272-1.164,0.574-2.177
				c6.986-23.445,18.034-45.844,33.776-68.477c6.949-9.989,14.396-19.981,21.597-29.645
				C427.088,261.176,427.257,260.948,427.427,260.72 M428.75,242.15c-10.57,14.379-21.449,28.543-31.637,43.188
				c-15.283,21.973-27.469,45.551-35.151,71.332c-1.65,5.543-2.248,9.91,3.842,13.594c18.243,11.032,32.571,26.192,44.422,43.811
				c1.367,2.035,3.258,3.721,5.617,6.365c22.492-27.051,48.014-48.801,81.213-61.723c-26.859-37.223-52.326-73.006-65.119-115.92
				C430.875,242.582,429.813,242.367,428.75,242.15L428.75,242.15z"/>
		</g>
	</g>
	<g id="Layer_14_copy">
		<g>
			<path d="M604.467,653.978c18.258,0,36.575,4.338,53.509,12.615c-10.804,15.52-24.079,28.15-40.54,38.58
				c-15.118,9.579-32.661,17.114-53.62,23.029c-1.229-0.041-3.329-0.876-3.987-1.466c-10.741-10.442-20.89-21.109-31.635-32.403
				c-1.654-1.738-3.333-3.504-5.024-5.278C544.055,666.659,573.222,653.978,604.467,653.978 M604.467,643.978
				c-36.193,0-71.017,15.572-94.797,45.432c14.477,15.07,28.453,30.173,43.188,44.497c2.483,2.413,7.274,4.297,11.049,4.297
				c0.827,0,1.604-0.09,2.299-0.285c40.773-11.457,76.457-30.985,100.974-67.06c1.766-2.598,2.973-5.574,4.402-8.309
				C650.253,650.063,627.091,643.978,604.467,643.978L604.467,643.978z"/>
		</g>
	</g>
	<g id="Layer_13_copy">
		<g>
			<path d="M606.221,283.503c7.213,13.677,14.044,26.63,20.649,39.567c-0.046,0.201-0.092,0.399-0.132,0.569
				c-0.116,0.5-0.229,0.988-0.324,1.451c-2.558,12.326-5.136,24.648-7.714,36.97c-5.637,26.943-11.466,54.804-16.979,82.267
				c-0.221,1.1-0.438,1.734-0.577,2.069c-0.118,0.029-0.272,0.062-0.468,0.093c-0.008-0.045-0.016-0.09-0.024-0.134
				c-0.111-0.613-0.225-1.233-0.352-1.856c-1.477-7.254-3.236-15.682-5.425-23.897c-7.287-27.353-16.908-55.062-45.237-71.049
				l44.049-51.418L606.221,283.503 M608.205,265.816c-25.633,29.922-49.695,58.012-74.742,87.248
				c33.785,12.578,43.887,40.594,51.75,70.112c2.051,7.697,3.699,15.51,5.289,23.318c1.032,5.079,1.073,10.154,8.301,10.154
				c0.267,0,0.542-0.007,0.828-0.021c7.281-0.355,10.445-3.123,11.895-10.328c7.984-39.773,16.438-79.454,24.68-119.176
				c0.461-2.227,1.387-5.033,0.508-6.762C627.736,302.724,618.428,285.253,608.205,265.816L608.205,265.816z"/>
		</g>
	</g>
	<g id="Layer_12_copy">
		<g>
			<path d="M493.411,580.702c5.668,0,11.004,2.875,15.857,8.546c9.099,10.628,16.456,22.737,24.244,35.558
				c1.376,2.265,2.784,4.582,4.206,6.896c-1.557,1.063-3.112,2.131-4.669,3.198c-11.772,8.078-23.945,16.431-36.502,22.714
				c-4.919,2.461-11.807,2.983-19.1,3.537c-2.081,0.157-4.233,0.321-6.36,0.534c-15.152,1.517-30.479,2.78-46.705,4.118
				c-1.191,0.099-2.389,0.197-3.592,0.296l0.615-0.952c14.431-22.344,29.353-45.449,44.462-67.815
				c2.343-3.468,6.394-6.649,10.69-9.875C482.445,583.038,488.273,580.702,493.411,580.702 M493.411,570.702
				c-7.457,0-15.222,3.026-22.856,8.758c-4.746,3.563-9.713,7.449-12.973,12.273c-15.596,23.086-30.703,46.508-45.82,69.914
				c-2.615,4.047-4.453,8.598-8.178,15.926c24.977-2.129,46.766-3.762,68.5-5.938c9.779-0.98,20.535-0.875,28.938-5.078
				c15.668-7.84,30.07-18.273,44.637-28.164c2.023-1.375,3.703-6.895,2.602-8.66c-9.969-16-19.219-32.766-31.395-46.988
				C509.861,574.563,501.832,570.702,493.411,570.702L493.411,570.702z"/>
		</g>
	</g>
	<g id="Layer_11_copy">
		<g>
			<path d="M403.771,526.971c5.457,0,11.503,2.665,17.485,7.707c7.681,6.478,14.125,14.773,20.949,23.558
				c0.773,0.995,1.545,1.989,2.318,2.979c-18.362,22.297-34.212,46.71-47.248,72.756c-9.73-19.23-22.075-35.778-36.795-49.301
				c-1.208-1.109-1.724-1.82-1.927-2.153c0.075-0.198,0.219-0.523,0.495-0.984c2.876-4.812,5.606-9.753,8.247-14.531
				c5.997-10.852,11.662-21.102,18.875-29.938C391.634,530.365,397.556,526.971,403.771,526.971 M403.771,516.971
				c-9.1,0-17.816,4.537-25.35,13.77c-11.184,13.7-18.79,30.321-27.958,45.661c-3.697,6.188-1.988,10.82,3.252,15.633
				c17.162,15.766,29.85,34.793,39.186,56.105c1.018,2.32,2.457,4.457,3.875,6.992c1.297-1.156,2.32-1.656,2.678-2.449
				c14.025-31.164,31.863-59.91,53.713-86.23c1.725-2.078,2.189-7.633,0.678-9.555c-8.189-10.398-16.127-21.419-26.143-29.864
				C419.785,520.358,411.635,516.971,403.771,516.971L403.771,516.971z"/>
		</g>
	</g>
	<g id="Layer_10_copy">
		<g>
			<path d="M362.081,403.349c3.767,0,8.752,3.421,13.336,9.153c14.63,18.291,21.249,40.941,27.274,64.489
				c0.397,1.55,0.852,3.114,1.292,4.625c0.601,2.063,1.686,5.794,2.003,8.251c-1.581,0.421-3.626,0.84-5.058,1.133
				c-2.238,0.458-4.553,0.931-6.725,1.559c-17.35,5.016-31.529,15.47-43.214,31.89c-4.496-22.039-6.985-42.105-6.143-62.521
				c0.749-18.19,3.082-33.341,7.132-46.319C354.375,407.933,358.151,403.349,362.081,403.349 M362.081,393.349
				c-8.33,0-15.645,6.455-19.648,19.282c-4.867,15.594-6.902,32.473-7.578,48.887c-1.209,29.293,4.264,57.988,11.707,88.802
				c4.137-6.754,6.908-11.493,9.883-16.099c9.863-15.277,22.633-26.879,40.536-32.055c6.447-1.863,16.555-2.512,18.262-6.559
				c2.383-5.641-1.066-14.074-2.863-21.096c-6.199-24.229-13.162-48.264-29.152-68.256
				C376.333,397.637,368.87,393.349,362.081,393.349L362.081,393.349z"/>
		</g>
	</g>
	<g id="Layer_9_copy">
		<g>
			<path d="M658.103,331.873c11.305,40.202,18.147,80.097,20.369,118.822c0.055,0.99,0.079,2.032,0.104,3.134l0.013,0.535
				l0.001,0.059c0.073,3.174,0.146,6.404,0.138,9.038c-2.178-0.793-4.749-1.797-7.278-2.784l-0.945-0.369
				c-8.672-3.381-17.657-5.055-26.347-6.674c-1.772-0.33-3.541-0.66-5.3-1.003c-1.782-0.348-3.551-0.592-5.277-0.772
				c1.202-4.654,2.417-9.278,3.608-13.818c4.951-18.857,10.07-38.356,13.786-57.831
				C654.032,364.177,656.167,347.861,658.103,331.873 M655.373,295.119c-0.973,0.215-1.949,0.434-2.922,0.648
				c-3.656,27.543-6.102,55.318-11.301,82.569c-5.266,27.598-13.25,54.678-20.227,82.725c4.895,0.391,10.566,0.32,16.016,1.385
				c10.074,1.967,20.453,3.484,29.931,7.18c8.439,3.292,13.683,5.387,16.909,5.387c5.291,0,5.155-5.637,4.806-20.877
				c-0.031-1.332-0.055-2.664-0.129-3.996c-2.703-47.117-11.773-93.061-25.789-138.055
				C660.846,306.24,657.834,300.763,655.373,295.119L655.373,295.119z"/>
		</g>
	</g>
	<g id="Layer_6_copy">
		<g>
			<path d="M742.398,466.057c0.476,0,0.949,0.006,1.42,0.018c-0.027,0.047-0.055,0.093-0.082,0.14
				c-5.121,8.63-10.446,17.273-14.979,24.589c-5.486,8.852-9.336,17.244-11.668,25.62c-0.516-13.381-2.452-27.297-5.816-41.732
				c-0.354-1.516-0.489-2.531-0.535-3.175c0.411-0.145,0.992-0.318,1.796-0.501c1.428-0.324,2.855-0.657,4.284-0.99
				C725.571,467.985,733.839,466.057,742.398,466.057 M715.109,550.731c0.844,24.585-6.043,46.007-20.515,63.763
				c-4.183,5.132-9.548,10.168-16.408,15.399c-1.746,1.332-3.196,2.384-4.345,3.151C696.346,609.166,710.123,581.65,715.109,550.731
				 M742.398,456.057c-11.224,0-21.636,2.835-32.079,5.207c-8.836,2.008-11.023,6.113-8.785,15.701
				c13.895,59.627,3.754,113.132-42.438,156.687c-1.094,1.027-1.781,2.488-2.66,3.75c6.97,4.745,10.94,7.152,14.753,7.152
				c3.66,0,7.175-2.217,13.064-6.711c6.563-5.004,12.898-10.656,18.094-17.031c18.453-22.641,24.836-49.52,22.297-77.801
				c-1.605-17.923,3.699-32.556,12.613-46.938c5.09-8.215,10.148-16.445,15.079-24.754c2.156-3.637,3.949-7.49,6.801-12.957
				C753.313,456.706,747.762,456.057,742.398,456.057L742.398,456.057z"/>
		</g>
	</g>
	<g id="Layer_5_copy">
		<g>
			<path d="M310.104,378.787c4.903,7.36,8.141,14.791,9.615,23.223c0.345,1.973,0.218,4.399-0.333,6.339
				c-9.967,35.163-12.365,72.186-7.186,112.283c-3.094-6.313-5.604-12.664-7.552-19.096c-6.378-21.044-6.537-42.274-0.484-64.903
				C309.405,417.038,311.378,397.946,310.104,378.787 M296.802,348.158c0.295,5.158,0.135,8.066,0.668,10.844
				c4.861,25.26,3.701,50.12-2.967,75.047c-13.504,50.488,2.875,93.375,36.48,131.517c-0.41-1.871-0.785-3.754-1.238-5.617
				c-12.057-49.563-14.832-99.153-0.738-148.872c0.965-3.395,1.17-7.316,0.563-10.789
				C325.902,379.307,312.875,364.169,296.802,348.158L296.802,348.158z"/>
		</g>
	</g>
	<g id="Layer_3_copy">
		<g>
			<path d="M580.541,217.43c5.869,6.235,11.207,12.794,16.03,19.702l-2.019,2.783l-3.033,4.18c-0.218,0.3-0.435,0.599-0.65,0.897
				C587.37,235.654,583.936,226.49,580.541,217.43 M557.385,184.14c9.973,26.605,19.941,53.209,30.648,81.783
				c5.762-7.936,9.738-13.418,14.613-20.137c8.266,8.916,15.609,16.832,22.953,24.75
				C611.658,234.916,588.646,206.529,557.385,184.14L557.385,184.14z"/>
		</g>
	</g>
</g>
<g id="Layer_2">
	<g id="Layer_20">
		<path fill-rule="evenodd" clip-rule="evenodd" d="M475.129,551.491c48.822,7,69.197,18.59,85.428,53.09
			c7.539,16.031,14.465,23.969,33.977,21.441c14.602-1.887,30.121,3.91,45.309,5.52c3.527,0.371,9.094-1.242,10.816-3.855
			c15.212-23.113,29.247-47.008,36.388-74.027c12.539-47.435-10.813-76.2-60.052-74.642c-0.332,0.012-0.664,0.031-0.996,0.055
			c-52.715,3.398-98.734,22.777-137.984,58.086C483.705,541.033,480.197,545.804,475.129,551.491z"/>
	</g>
	<g id="Layer_19">
		<path fill-rule="evenodd" clip-rule="evenodd" d="M576.635,462.617c-2.914-26.111-5.914-49.252-16.887-70.346
			c-10.758-20.678-28.93-27.75-50.238-18.649c-10.59,4.524-21.277,10.157-29.934,17.6c-17.367,14.932-33.18,31.654-50.025,47.213
			c-7.168,6.621-8.746,12.715-3.609,21.541c3.246,5.576,5.746,12.643,5.574,18.959c-0.574,21.055,12.156,33.254,27.045,44.496
			c1.324,1.004,2.684,2.027,3.77,3.266c5.016,5.727,9.346,4.965,15.129,0.223c26.688-21.891,55.801-39.898,88.582-51.193
			C574.541,472.799,578.463,468.689,576.635,462.617z"/>
	</g>
	<g id="Layer_18">
		<path fill-rule="evenodd" clip-rule="evenodd" d="M492.752,806.755c6.219-0.934,18.063-2.617,29.871-4.512
			c6.914-1.113,12.133-4.852,12.492-12.176c0.582-11.825,2.379-24.138-0.043-35.45c-5.84-27.258-24.313-46.923-44.469-64.759
			c-3.453-3.055-9.551-5.027-14.133-4.566c-16.211,1.629-32.402,3.961-48.393,7.086c-24.914,4.867-49.271,11.574-71.213,25.165
			c-6.508,4.027-8.479,7.582-2.42,13.754c10.49,10.684,19.941,22.449,30.938,32.559
			C414.023,790.181,447.223,806.415,492.752,806.755z"/>
	</g>
	<g id="Layer_17" display="none">
		<path display="inline" fill-rule="evenodd" clip-rule="evenodd" d="M514.924,138.955c-7.59,11.363-13.941,20.273-19.668,29.57
			c-14.457,23.475-28.756,47.051-42.84,70.75c-3.891,6.547-4.504,13.18-0.25,20.631c7.074,12.402,12.391,25.807,19.43,38.232
			c8.34,14.727,17.266,29.172,26.809,43.145c5.949,8.715,20.379,8.969,26.883,1.432c14.992-17.371,30.313-34.49,44.539-52.475
			c3.605-4.557,5.723-12.262,4.918-18.016c-4.875-34.814-20.066-65.955-36.816-96.316
			C531.244,163.787,523.318,152.349,514.924,138.955z"/>
	</g>
	<g id="Layer_16">
		<path fill-rule="evenodd" clip-rule="evenodd" d="M243.976,459.863c-1.035,0.746-2.074,1.494-3.109,2.24
			c16.328,28.09,16.273,59.148,17.762,89.935c0.596,12.281,0.586,24.641,2.035,36.82c5.26,44.234,23.15,82.188,56.484,112.539
			c8.359,7.613,15.781,10.359,26.525,4.496c12.23-6.676,25.412-11.598,38.116-17.422c2.871-1.316,5.479-3.199,10.137-5.969
			c-13.934-23.477-26.965-46.211-40.897-68.375c-3.576-5.691-9.318-10.848-15.252-14.055c-13.787-7.453-21.818-19.141-27.742-32.859
			c-4.615-10.695-8.426-21.789-13.705-32.138c-9.955-19.504-20.049-39.004-31.471-57.66
			C258.537,470.357,250.382,465.646,243.976,459.863z"/>
	</g>
	<g id="Layer_15">
		<path fill-rule="evenodd" clip-rule="evenodd" d="M431.938,242.796c-1.063-0.215-2.125-0.43-3.188-0.646
			c-10.57,14.379-21.449,28.543-31.637,43.188c-15.283,21.973-27.469,45.551-35.151,71.332c-1.65,5.543-2.248,9.91,3.842,13.594
			c18.243,11.032,32.571,26.192,44.422,43.811c1.367,2.035,3.258,3.721,5.617,6.365c22.492-27.051,48.014-48.801,81.213-61.723
			C470.197,321.494,444.73,285.71,431.938,242.796z"/>
	</g>
	<g id="Layer_14">
		<path fill-rule="evenodd" clip-rule="evenodd" d="M509.67,689.409c14.477,15.07,28.453,30.173,43.188,44.497
			c3.027,2.941,9.484,5.098,13.348,4.012c40.773-11.457,76.457-30.985,100.974-67.06c1.766-2.598,2.973-5.574,4.402-8.309
			C616.131,630.089,548.314,640.886,509.67,689.409z"/>
	</g>
	<g id="Layer_13">
		<path fill-rule="evenodd" clip-rule="evenodd" d="M533.463,353.064c33.785,12.578,43.887,40.594,51.75,70.112
			c2.051,7.697,3.699,15.51,5.289,23.318c1.07,5.266,1.074,10.527,9.129,10.133c7.281-0.355,10.445-3.123,11.895-10.328
			c7.984-39.773,16.438-79.454,24.68-119.176c0.461-2.227,1.387-5.033,0.508-6.762c-8.977-17.637-18.285-35.107-28.508-54.545
			C582.572,295.738,558.51,323.828,533.463,353.064z"/>
	</g>
	<g id="Layer_12">
		<path fill-rule="evenodd" clip-rule="evenodd" d="M403.584,677.573c24.977-2.129,46.766-3.762,68.5-5.938
			c9.779-0.98,20.535-0.875,28.938-5.078c15.668-7.84,30.07-18.273,44.637-28.164c2.023-1.375,3.703-6.895,2.602-8.66
			c-9.969-16-19.219-32.766-31.395-46.988c-13.207-15.43-30.055-15.488-46.311-3.285c-4.746,3.563-9.713,7.449-12.973,12.273
			c-15.596,23.086-30.703,46.508-45.82,69.914C409.146,665.694,407.309,670.245,403.584,677.573z"/>
	</g>
	<g id="Layer_11">
		<path fill-rule="evenodd" clip-rule="evenodd" d="M396.777,655.132c1.297-1.156,2.32-1.656,2.678-2.449
			c14.025-31.164,31.863-59.91,53.713-86.23c1.725-2.078,2.189-7.633,0.678-9.555c-8.189-10.398-16.127-21.419-26.143-29.864
			c-17.082-14.398-35.238-13.504-49.281,3.707c-11.184,13.7-18.79,30.321-27.958,45.661c-3.697,6.188-1.988,10.82,3.252,15.633
			c17.162,15.766,29.85,34.793,39.186,56.105C393.92,650.46,395.359,652.597,396.777,655.132z"/>
	</g>
	<g id="Layer_10">
		<path fill-rule="evenodd" clip-rule="evenodd" d="M346.562,550.319c4.137-6.754,6.908-11.493,9.883-16.099
			c9.863-15.277,22.633-26.879,40.536-32.055c6.447-1.863,16.555-2.512,18.262-6.559c2.383-5.641-1.066-14.074-2.863-21.096
			c-6.199-24.229-13.162-48.264-29.152-68.256c-15.352-19.195-33.528-16.906-40.793,6.375c-4.867,15.594-6.902,32.473-7.578,48.887
			C333.646,490.811,339.119,519.506,346.562,550.319z"/>
	</g>
	<g id="Layer_9">
		<path fill-rule="evenodd" clip-rule="evenodd" d="M655.373,295.119c-0.973,0.215-1.949,0.434-2.922,0.648
			c-3.656,27.543-6.102,55.318-11.301,82.569c-5.266,27.598-13.25,54.678-20.227,82.725c4.895,0.391,10.566,0.32,16.016,1.385
			c10.074,1.967,20.453,3.484,29.931,7.18c22.285,8.691,22.277,9.041,21.715-15.49c-0.031-1.332-0.055-2.664-0.129-3.996
			c-2.703-47.117-11.773-93.061-25.789-138.055C660.846,306.24,657.834,300.763,655.373,295.119z"/>
	</g>
	<g id="Layer_8">
		<path fill-rule="evenodd" clip-rule="evenodd" d="M699.151,652.229c-15.176,18.18-28.313,34.898-42.493,50.688
			c-21.984,24.474-47.336,43.845-81.121,49.157c-19.363,3.047-21.328,5.094-23.652,24.984c-0.648,5.563-0.047,11.271-0.059,16.907
			c-0.02,8.789,4.035,10.152,12.113,8.184C639.908,783.645,682.995,738.242,699.151,652.229z"/>
	</g>
	<g id="Layer_7">
		<path fill-rule="evenodd" clip-rule="evenodd" d="M455.939,816.825c-22.666-12.465-44.869-23.219-65.498-36.431
			c-20.508-13.133-39.434-28.73-59.36-43.473c0.531,21.75-14.34,36.371-30.857,49.806
			C351.552,825.997,413.941,841.122,455.939,816.825z"/>
	</g>
	<g id="Layer_6">
		<path fill-rule="evenodd" clip-rule="evenodd" d="M759.137,458.361c-18.013-5.121-33.384-0.602-48.817,2.902
			c-8.836,2.008-11.023,6.113-8.785,15.701c13.895,59.627,3.754,113.132-42.438,156.687c-1.094,1.027-1.781,2.488-2.66,3.75
			c13.661,9.301,15.794,9.617,27.817,0.441c6.563-5.004,12.898-10.656,18.094-17.031c18.453-22.641,24.836-49.52,22.297-77.801
			c-1.605-17.923,3.699-32.556,12.613-46.938c5.09-8.215,10.148-16.445,15.079-24.754
			C754.492,467.682,756.285,463.828,759.137,458.361z"/>
	</g>
	<g id="Layer_5">
		<path fill-rule="evenodd" clip-rule="evenodd" d="M330.984,565.565c-0.41-1.871-0.785-3.754-1.238-5.617
			c-12.057-49.563-14.832-99.153-0.738-148.872c0.965-3.395,1.17-7.316,0.563-10.789c-3.668-20.98-16.695-36.118-32.768-52.129
			c0.295,5.158,0.135,8.066,0.668,10.844c4.861,25.26,3.701,50.12-2.967,75.047C281,484.537,297.378,527.424,330.984,565.565z"/>
	</g>
	<g id="Layer_4" display="none">
		<path display="inline" fill-rule="evenodd" clip-rule="evenodd" d="M454.85,832.161c3.965,5.578,5.625,10.246,8.875,12.051
			c9.734,5.395,19.656,11.789,30.293,13.965c27.434,5.621,55.035,1.984,82.445-2.332c5.348-0.84,5.496-3.777,5.855-8.32
			c0.906-11.512,2.773-22.945,4.352-34.398c0.375-2.719,1.121-5.391,2.105-10C545.568,821.63,501.857,828.97,454.85,832.161z"/>
	</g>
	<g id="Layer_3" display="none">
		<path display="inline" fill-rule="evenodd" clip-rule="evenodd" d="M625.6,270.537c-13.941-35.621-36.953-64.008-68.215-86.396
			c9.973,26.605,19.941,53.209,30.648,81.783c5.762-7.936,9.738-13.418,14.613-20.137
			C610.912,254.703,618.256,262.619,625.6,270.537z"/>
	</g>
</g>
</svg>
